<svg width="18" height="10" viewBox="0 0 18 10" fill="none" xmlns="http://www.w3.org/2000/svg">
<path d="M0.308001 5.28715C0.34567 5.37793 0.400698 5.46047 0.469999 5.53015L4.47 9.53016C4.61217 9.66264 4.80022 9.73476 4.99452 9.73133C5.18882 9.7279 5.37421 9.64919 5.51162 9.51178C5.64903 9.37436 5.72775 9.18898 5.73118 8.99468C5.7346 8.80038 5.66248 8.61233 5.53 8.47015L2.811 5.75015H17C17.1989 5.75015 17.3897 5.67114 17.5303 5.53048C17.671 5.38983 17.75 5.19907 17.75 5.00015C17.75 4.80124 17.671 4.61048 17.5303 4.46982C17.3897 4.32917 17.1989 4.25015 17 4.25015H2.811L5.53 1.53015C5.60369 1.46149 5.66279 1.37869 5.70378 1.28669C5.74477 1.19469 5.76682 1.09538 5.76859 0.994676C5.77037 0.893973 5.75184 0.793944 5.71412 0.700556C5.6764 0.607168 5.62026 0.522334 5.54904 0.451115C5.47782 0.379896 5.39299 0.323752 5.2996 0.286031C5.20621 0.24831 5.10618 0.229785 5.00548 0.231562C4.90478 0.233339 4.80546 0.25538 4.71346 0.296372C4.62146 0.337364 4.53866 0.396466 4.47 0.470153L0.469999 4.47015C0.36539 4.57515 0.294189 4.70875 0.265362 4.85414C0.236534 4.99952 0.25137 5.15019 0.308001 5.28715Z" fill="white"/>
</svg>
