<svg width="18" height="10" viewBox="0 0 18 10" fill="none" xmlns="http://www.w3.org/2000/svg">
<path d="M17.692 5.28715C17.6543 5.37793 17.5993 5.46047 17.53 5.53015L13.53 9.53016C13.3878 9.66264 13.1998 9.73476 13.0055 9.73133C12.8112 9.7279 12.6258 9.64919 12.4884 9.51178C12.351 9.37436 12.2723 9.18898 12.2688 8.99468C12.2654 8.80038 12.3375 8.61233 12.47 8.47015L15.189 5.75015H1C0.801088 5.75015 0.610322 5.67114 0.46967 5.53048C0.329018 5.38983 0.25 5.19907 0.25 5.00015C0.25 4.80124 0.329018 4.61048 0.46967 4.46982C0.610322 4.32917 0.801088 4.25015 1 4.25015H15.189L12.47 1.53015C12.3963 1.46149 12.3372 1.37869 12.2962 1.28669C12.2552 1.19469 12.2332 1.09538 12.2314 0.994676C12.2296 0.893973 12.2482 0.793944 12.2859 0.700556C12.3236 0.607168 12.3797 0.522334 12.451 0.451115C12.5222 0.379896 12.607 0.323752 12.7004 0.286031C12.7938 0.24831 12.8938 0.229785 12.9945 0.231562C13.0952 0.233339 13.1945 0.25538 13.2865 0.296372C13.3785 0.337364 13.4613 0.396466 13.53 0.470153L17.53 4.47015C17.6346 4.57515 17.7058 4.70875 17.7346 4.85414C17.7635 4.99952 17.7486 5.15019 17.692 5.28715Z" fill="white"/>
</svg>
