<svg width="189" height="224" viewBox="0 0 189 224" fill="none" xmlns="http://www.w3.org/2000/svg">
<path d="M161.566 30.1394C139.122 6.19191 85.8489 -17.9111 38.2649 19.0468C18.0106 32.3942 3.98939 57.2359 0.723816 85.5245C-3.24152 120.007 9.2117 155.281 34.9864 182.299C47.945 197.396 77.7498 213.076 113.036 223.262C113.802 223.487 114.596 223.601 115.395 223.598C117.45 223.61 119.44 222.876 120.996 221.533C122.552 220.191 123.569 218.329 123.858 216.294C124.148 214.26 123.69 212.189 122.57 210.465C121.45 208.742 119.743 207.483 117.766 206.921C85.9007 197.694 58.4415 183.595 47.7895 171.103C47.6729 170.974 47.5692 170.844 47.4526 170.727C16.8702 138.72 15.6521 104.807 17.6478 87.4424C20.3302 64.0132 31.6431 43.7071 47.945 33.081C48.1567 32.9576 48.3563 32.8144 48.5411 32.6534C87.2484 2.38208 130.828 22.1958 149.204 41.7244C164.832 58.3762 172.529 76.9848 171.402 95.5026C170.482 111.053 163.16 126.046 151.86 135.545C144.422 141.791 133.239 143.527 122.69 140.08C117.947 138.723 113.846 135.712 111.131 131.592C114.498 128.64 117.379 125.176 119.671 121.329C122.88 115.932 124.623 109.79 124.727 103.513C124.832 97.2346 123.294 91.0383 120.267 85.5375L117.921 81.3518C115.769 77.4617 112.331 74.4404 108.197 72.8047C104.063 71.1689 99.4885 71.0204 95.2569 72.3845L90.8639 64.4409C90.3357 63.4442 89.6145 62.5626 88.7422 61.8474C87.8699 61.1323 86.8641 60.5979 85.7832 60.2754C84.7023 59.9529 83.5681 59.8487 82.4465 59.9689C81.325 60.0891 80.2386 60.4314 79.2506 60.9756C78.2627 61.5199 77.3929 62.2554 76.692 63.1391C75.9911 64.0229 75.4731 65.0374 75.1682 66.1233C74.8633 67.2093 74.7775 68.3451 74.916 69.4645C75.0544 70.584 75.4142 71.6647 75.9745 72.6437L80.1471 80.3411L67.8494 87.1055L63.8193 79.7968C63.2971 78.7877 62.5783 77.8933 61.7051 77.1664C60.8319 76.4394 59.8221 75.8946 58.7351 75.564C57.648 75.2334 56.5058 75.1237 55.3758 75.2414C54.2457 75.3591 53.1506 75.7018 52.155 76.2493C51.1595 76.7968 50.2836 77.5381 49.579 78.4294C48.8743 79.3207 48.3552 80.344 48.0522 81.4391C47.7493 82.5341 47.6685 83.6787 47.8148 84.8054C47.9611 85.9322 48.3314 87.0182 48.9039 87.9996L53.1284 95.5804C49.714 98.4335 47.3953 102.383 46.5682 106.755C45.7411 111.127 46.4567 115.651 48.5929 119.554L50.9514 123.791C53.9907 129.284 58.4104 133.888 63.7739 137.149C69.1373 140.41 75.2589 142.216 81.5337 142.387H82.6222C87.2792 142.385 91.905 141.628 96.3195 140.145C101.14 147.894 108.609 153.631 117.338 156.291C133.446 161.579 150.836 158.65 162.758 148.633C177.583 136.18 187.146 116.703 188.339 96.5523C189.297 80.3411 185.436 55.5901 161.566 30.1394ZM81.9484 125.372C78.6453 125.28 75.4231 124.329 72.5989 122.614C69.7747 120.898 67.4456 118.477 65.8408 115.588L63.4953 111.325C63.226 110.833 63.1621 110.255 63.3174 109.716C63.4728 109.177 63.8348 108.721 64.3247 108.448L68.601 106.09L95.8141 91.1097L100.103 88.7642C100.597 88.4959 101.177 88.4339 101.716 88.5917C102.255 88.7496 102.709 89.1144 102.98 89.6065L105.326 93.8439C106.92 96.7507 107.726 100.024 107.662 103.339C107.598 106.654 106.668 109.894 104.963 112.738C102.579 116.684 99.1954 119.93 95.1542 122.149C91.1129 124.368 86.5574 125.479 81.9484 125.372Z" fill="#D3EDFF"/>
</svg>
