<svg width="201" height="37" viewBox="0 0 201 37" fill="none" xmlns="http://www.w3.org/2000/svg">
<path d="M30.388 36.9986C30.1498 36.9985 29.9147 36.9445 29.7003 36.8406C29.4859 36.7367 29.2977 36.5856 29.1498 36.3987C29.0019 36.2117 28.8981 35.9936 28.8461 35.7608C28.7942 35.528 28.7955 35.2865 28.8499 35.0542C28.8698 34.967 30.8646 26.0803 25.6653 22.4658C14.2998 16.2937 3.06867 35.994 2.95667 36.1947C2.75072 36.5603 2.40819 36.8289 2.00445 36.9416C1.6007 37.0543 1.16881 37.0017 0.803775 36.7954C0.438742 36.5891 0.170473 36.2461 0.0579845 35.8417C-0.0545041 35.4373 -0.00199779 35.0048 0.203952 34.6392C0.328397 34.4123 3.37605 29.0305 8.10619 24.4587C14.6943 18.086 21.3172 16.4507 27.2545 19.7225C27.2968 19.7462 27.3391 19.7723 27.3789 19.7998C34.4573 24.6183 32.0257 35.3259 31.9236 35.7796C31.8419 36.1262 31.6459 36.435 31.3672 36.6562C31.0885 36.8774 30.7436 36.998 30.388 36.9986Z" fill="url(#paint0_linear_8115_2832)"/>
<path d="M44.4195 28.8101C44.2263 28.8102 44.0347 28.7743 43.8546 28.7041C42.4558 28.1669 30.1445 23.2811 28.7084 17.2474C27.1516 10.7089 32.5239 1.97552 32.7479 1.61033C32.9692 1.25415 33.3227 1.0006 33.7306 0.905471C34.1386 0.810339 34.5675 0.88141 34.9232 1.10305C35.2788 1.32469 35.5319 1.67875 35.6269 2.08733C35.7219 2.49591 35.6509 2.92554 35.4297 3.28172C35.3774 3.36523 30.5303 11.2586 31.7809 16.517C32.5749 19.8511 40.3017 23.9517 44.9858 25.754C45.3304 25.8862 45.6179 26.1352 45.7984 26.4577C45.9788 26.7802 46.0408 27.1558 45.9735 27.5193C45.9062 27.8827 45.7139 28.2111 45.43 28.4474C45.1462 28.6836 44.7886 28.8128 44.4195 28.8126V28.8101Z" fill="url(#paint1_linear_8115_2832)"/>
<path d="M17.7146 16.2938C16.5045 16.3007 15.2989 16.1444 14.1305 15.8289C13.9319 15.7691 13.747 15.6706 13.5863 15.5392C13.4257 15.4078 13.2924 15.246 13.1942 15.063C13.096 14.8801 13.0347 14.6795 13.0138 14.4728C12.993 14.2661 13.013 14.0573 13.0728 13.8584C13.1325 13.6594 13.2308 13.4742 13.362 13.3133C13.4932 13.1524 13.6547 13.0189 13.8374 12.9205C14.0201 12.8222 14.2204 12.7608 14.4268 12.7399C14.6331 12.7191 14.8416 12.7391 15.0402 12.7989C15.0801 12.8114 19.4829 14.064 22.6475 11.5825C24.8813 9.86122 24.8228 6.79264 24.8216 6.76148C24.8064 6.34216 24.9582 5.93398 25.2435 5.62673C25.5288 5.31947 25.9243 5.13832 26.3429 5.12311C26.7616 5.1079 27.1691 5.25989 27.4759 5.54564C27.7827 5.83139 27.9636 6.22749 27.9787 6.64681C27.9862 6.83751 28.1194 11.3569 24.5839 14.0815C22.3339 15.8476 19.7517 16.2938 17.7146 16.2938Z" fill="url(#paint2_linear_8115_2832)"/>
<path d="M58.5037 22.7052C58.9901 23.2018 59.5732 23.5932 60.2169 23.8552C60.8606 24.1172 61.5513 24.2443 62.2461 24.2286C63.4237 24.2261 64.5689 23.8431 65.5112 23.1369C66.5448 22.3676 67.4235 21.4096 68.1009 20.3135C69.1315 18.6041 70.2891 16.9745 71.564 15.4387V10.9244H74.3874V12.9556C75.8055 11.5658 77.6939 10.7594 79.6785 10.6959C82.3122 10.6045 84.2486 11.3577 85.4876 12.9556C86.7719 14.7115 87.425 16.8499 87.341 19.0237V27.0367H84.5177V19.0237C84.5177 15.1882 82.9046 13.3415 79.6785 13.4837C77.9622 13.5548 76.4033 14.3486 75.0018 15.8652C73.4568 17.5781 72.07 19.4272 70.8582 21.3901C70.5739 21.8978 70.3758 22.2127 70.254 22.4056C69.3604 23.7933 68.1964 24.9867 66.8315 25.9145C65.472 26.7931 63.8796 27.2425 62.2614 27.2043C60.8031 27.2175 59.3688 26.8331 58.1127 26.0922C56.8701 25.3677 55.8363 24.3338 55.1117 23.0912C54.3835 21.8372 54 20.4129 54 18.9628C54 17.5127 54.3835 16.0884 55.1117 14.8344C55.8363 13.5918 56.8701 12.5579 58.1127 11.8334C59.3688 11.0925 60.8031 10.708 62.2614 10.7213C64.0802 10.6833 65.8501 11.3119 67.2377 12.4884C67.891 13.0267 68.8558 14.2268 70.1321 16.0887L58.5037 22.7052ZM66.0901 15.3321C65.6026 14.7999 65.0081 14.3769 64.3457 14.0908C63.6832 13.8046 62.9677 13.6617 62.2461 13.6716C61.5505 13.6682 60.8612 13.8026 60.2177 14.0669C59.5743 14.3313 58.9896 14.7203 58.4973 15.2117C58.0049 15.7031 57.6147 16.2871 57.3491 16.9301C57.0836 17.573 56.9479 18.2621 56.9499 18.9577C56.9476 19.4457 57.0074 19.932 57.1276 20.4049L66.0901 15.3321ZM74.3874 17.9777V26.9402H71.564V22.2482C72.3864 20.7464 73.3307 19.3147 74.3874 17.9675V17.9777Z" fill="#629094"/>
<path d="M92.7745 19.4505V26.9303H89.9512V4.93262H92.7745V17.6275L99.9394 10.9805H103.859L95.7349 18.5669L104.763 26.9303H100.823L92.7745 19.4505Z" fill="#629094"/>
<path d="M113.903 10.6387C116.398 10.6387 118.192 11.1465 119.286 12.1621C120.379 13.1776 120.926 14.8246 120.926 17.1029V26.6342H118.103V24.6589L118.032 24.73C117.509 25.3216 116.903 25.8347 116.234 26.2534C115.415 26.6734 114.509 26.8976 113.589 26.9084C111.557 27.0506 109.892 26.6968 108.592 25.8471C107.955 25.4398 107.434 24.8755 107.078 24.2085C106.723 23.5416 106.544 22.7944 106.561 22.0387C106.508 21.266 106.645 20.4922 106.959 19.7843C107.273 19.0765 107.755 18.4559 108.363 17.9763C109.613 16.9607 111.342 16.4529 113.553 16.4529H118.067C118.067 15.2545 117.729 14.437 117.052 14.0003C116.136 13.5147 115.105 13.2899 114.071 13.3503H108.688V10.6641L113.903 10.6387ZM113.553 19.0782C112.536 19.0204 111.523 19.2585 110.638 19.7637C110.317 19.957 110.05 20.2282 109.862 20.5522C109.674 20.8763 109.571 21.2426 109.562 21.6172C109.513 22.0426 109.596 22.4727 109.801 22.8488C110.005 23.225 110.321 23.5291 110.704 23.7195C111.655 24.1617 112.724 24.2863 113.751 24.0749C114.539 23.9739 115.29 23.6771 115.934 23.2117C116.759 22.5645 117.495 21.8116 118.123 20.9723V19.0681L113.553 19.0782Z" fill="#629094"/>
<path d="M125.317 32.9319L128.12 26.9297L120.6 10.9443H123.743L129.643 23.8271L135.711 10.9443H138.855L131.674 26.1223L128.46 32.9319H125.317Z" fill="#629094"/>
<path d="M142.716 13.6283H140.07V10.9472H142.716V7.875H145.544V10.9472H150.023V13.6283H145.58V20.9355C145.58 22.1796 145.834 23.053 146.352 23.5455C146.87 24.0381 147.707 24.2869 148.86 24.2869H150.023V26.9325H149.007C144.82 26.9325 142.724 24.9335 142.721 20.9355L142.716 13.6283Z" fill="#629094"/>
<path d="M155.39 22.7085C155.874 23.2106 156.456 23.6076 157.1 23.875C157.743 24.1423 158.435 24.2742 159.132 24.2624C160.084 24.2617 161.017 24.006 161.836 23.522C162.655 23.0379 163.33 22.3432 163.789 21.5101L166.297 23.0995C165.57 24.3399 164.537 25.3731 163.296 26.1006C162.04 26.8341 160.612 27.2206 159.158 27.2206C157.703 27.2206 156.275 26.8341 155.019 26.1006C153.777 25.376 152.743 24.3422 152.018 23.0995C151.29 21.842 150.906 20.4144 150.906 18.961C150.906 17.5077 151.29 16.0801 152.018 14.8225C152.737 13.5755 153.772 12.5403 155.019 11.8214C156.268 11.0971 157.689 10.7202 159.132 10.7297C160.415 10.7626 161.673 11.0825 162.816 11.666C163.958 12.2496 164.955 13.0818 165.734 14.1014C166.192 14.7396 166.605 15.4099 166.968 16.1072L155.39 22.7085ZM162.976 15.2998C162.483 14.7772 161.887 14.3628 161.225 14.0831C160.564 13.8033 159.851 13.6643 159.132 13.6749C157.729 13.6776 156.383 14.2364 155.39 15.2291C154.398 16.2218 153.839 17.5673 153.836 18.9712C153.834 19.4499 153.906 19.9261 154.049 20.3828L162.976 15.2998Z" fill="#629094"/>
<path d="M198.168 19.0616C198.168 15.2295 196.556 13.3828 193.333 13.5216C191.617 13.5927 190.053 14.3848 188.657 15.9031C187.103 17.6318 185.714 19.5019 184.508 21.4889C184.229 21.9611 184 22.276 183.909 22.4435C183.039 23.8091 181.953 25.0249 180.695 26.0438C179.476 26.8904 178.013 27.3116 176.531 27.2422C175.074 27.2553 173.641 26.8708 172.387 26.1301C171.145 25.4056 170.111 24.3717 169.386 23.1291C168.658 21.8751 168.274 20.4508 168.274 19.0007C168.274 17.5506 168.658 16.1263 169.386 14.8723C170.111 13.6297 171.145 12.5958 172.387 11.8712C173.642 11.1382 175.07 10.7519 176.523 10.7519C177.977 10.7519 179.404 11.1382 180.659 11.8712C181.902 12.5958 182.935 13.6297 183.66 14.8723L181.157 16.4617C180.71 15.638 180.05 14.949 179.247 14.4661C178.548 14.0473 177.761 13.7958 176.949 13.7312C176.136 13.6666 175.319 13.7906 174.563 14.0936C173.806 14.3967 173.129 14.8705 172.586 15.4781C172.042 16.0857 171.646 16.8106 171.429 17.5964C171.212 18.3822 171.179 19.2075 171.334 20.0079C171.488 20.8084 171.826 21.5624 172.319 22.211C172.813 22.8596 173.45 23.3854 174.181 23.7472C174.911 24.109 175.715 24.2972 176.531 24.297C177.578 24.3326 178.6 23.9696 179.39 23.2814C180.295 22.4218 181.079 21.4429 181.72 20.3717C182.758 18.6793 183.913 17.0622 185.178 15.5324V4.98047H188.042V12.9935C189.463 11.6038 191.352 10.7975 193.338 10.7338C195.976 10.639 197.91 11.3973 199.143 13.0087C200.423 14.7605 201.076 16.893 200.996 19.0616V27.0746H198.173L198.168 19.0616ZM188.042 18.0054V26.968H185.183V22.276C186.033 20.7858 186.988 19.3586 188.042 18.0054Z" fill="#629094"/>
<defs>
<linearGradient id="paint0_linear_8115_2832" x1="-0.917954" y1="26.7064" x2="41.0208" y2="43.0831" gradientUnits="userSpaceOnUse">
<stop offset="0.375841" stop-color="#34A2FF"/>
<stop offset="0.728024" stop-color="#37DE47"/>
</linearGradient>
<linearGradient id="paint1_linear_8115_2832" x1="27.928" y1="13.6071" x2="53.6105" y2="17.2887" gradientUnits="userSpaceOnUse">
<stop offset="0.195777" stop-color="#34A2FF"/>
<stop offset="0.679628" stop-color="#37DE47"/>
</linearGradient>
<linearGradient id="paint2_linear_8115_2832" x1="10.9886" y1="13.31" x2="34.6943" y2="5.02858" gradientUnits="userSpaceOnUse">
<stop offset="0.321046" stop-color="#34A2FF"/>
<stop offset="0.894395" stop-color="#37DE47"/>
</linearGradient>
</defs>
</svg>
