<svg width="1440" height="583" viewBox="0 0 1440 583" fill="none" xmlns="http://www.w3.org/2000/svg">
<g style="mix-blend-mode:luminosity">
<line x1="1464" y1="304.5" x2="-24" y2="304.5" stroke="#F4F4F4"/>
<line x1="1464" y1="328.5" x2="-24" y2="328.5" stroke="#F4F4F4"/>
<line x1="1464" y1="352.5" x2="-24" y2="352.5" stroke="#F4F4F4"/>
<line x1="1464" y1="376.5" x2="-24" y2="376.5" stroke="#F4F4F4"/>
<line x1="1464" y1="400.5" x2="-24" y2="400.5" stroke="#F4F4F4"/>
<line x1="1464" y1="424.5" x2="-24" y2="424.5" stroke="#F4F4F4"/>
<line x1="1464" y1="448.5" x2="-24" y2="448.5" stroke="#F4F4F4"/>
<line x1="1464" y1="472.5" x2="-24" y2="472.5" stroke="#F4F4F4"/>
<line x1="1464" y1="496.5" x2="-24" y2="496.5" stroke="#F4F4F4"/>
<line x1="1464" y1="520.5" x2="-24" y2="520.5" stroke="#F4F4F4"/>
<line x1="1464" y1="544.5" x2="-24" y2="544.5" stroke="#F4F4F4"/>
<line x1="1464" y1="568.5" x2="-24" y2="568.5" stroke="#F4F4F4"/>
<line x1="24.5" y1="280" x2="24.5" y2="1000" stroke="#F4F4F4"/>
<line x1="24.5" y1="280" x2="24.5" y2="1000" stroke="#F4F4F4"/>
<line x1="48.5" y1="280" x2="48.5" y2="1000" stroke="#F4F4F4"/>
<line x1="72.5" y1="280" x2="72.5" y2="1000" stroke="#F4F4F4"/>
<line x1="96.5" y1="280" x2="96.5" y2="1000" stroke="#F4F4F4"/>
<line x1="120.5" y1="280" x2="120.5" y2="1000" stroke="#F4F4F4"/>
<line x1="144.5" y1="280" x2="144.5" y2="1000" stroke="#F4F4F4"/>
<line x1="168.5" y1="280" x2="168.5" y2="1000" stroke="#F4F4F4"/>
<line x1="192.5" y1="280" x2="192.5" y2="1000" stroke="#F4F4F4"/>
<line x1="216.5" y1="280" x2="216.5" y2="1000" stroke="#F4F4F4"/>
<line x1="240.5" y1="280" x2="240.5" y2="1000" stroke="#F4F4F4"/>
<line x1="264.5" y1="280" x2="264.5" y2="1000" stroke="#F4F4F4"/>
<line x1="288.5" y1="280" x2="288.5" y2="1000" stroke="#F4F4F4"/>
<line x1="312.5" y1="280" x2="312.5" y2="1000" stroke="#F4F4F4"/>
<line x1="336.5" y1="280" x2="336.5" y2="1000" stroke="#F4F4F4"/>
<line x1="360.5" y1="280" x2="360.5" y2="1000" stroke="#F4F4F4"/>
<line x1="384.5" y1="280" x2="384.5" y2="1000" stroke="#F4F4F4"/>
<line x1="408.5" y1="280" x2="408.5" y2="1000" stroke="#F4F4F4"/>
<line x1="432.5" y1="280" x2="432.5" y2="1000" stroke="#F4F4F4"/>
<line x1="456.5" y1="280" x2="456.5" y2="1000" stroke="#F4F4F4"/>
<line x1="480.5" y1="280" x2="480.5" y2="1000" stroke="#F4F4F4"/>
<line x1="504.5" y1="280" x2="504.5" y2="1000" stroke="#F4F4F4"/>
<line x1="528.5" y1="280" x2="528.5" y2="1000" stroke="#F4F4F4"/>
<line x1="552.5" y1="280" x2="552.5" y2="1000" stroke="#F4F4F4"/>
<line x1="576.5" y1="280" x2="576.5" y2="1000" stroke="#F4F4F4"/>
<line x1="600.5" y1="280" x2="600.5" y2="1000" stroke="#F4F4F4"/>
<line x1="624.5" y1="280" x2="624.5" y2="1000" stroke="#F4F4F4"/>
<line x1="648.5" y1="280" x2="648.5" y2="1000" stroke="#F4F4F4"/>
<line x1="672.5" y1="280" x2="672.5" y2="1000" stroke="#F4F4F4"/>
<line x1="696.5" y1="280" x2="696.5" y2="1000" stroke="#F4F4F4"/>
<line x1="720.5" y1="280" x2="720.5" y2="1000" stroke="#F4F4F4"/>
<line x1="744.5" y1="280" x2="744.5" y2="1000" stroke="#F4F4F4"/>
<line x1="768.5" y1="280" x2="768.5" y2="1000" stroke="#F4F4F4"/>
<line x1="792.5" y1="280" x2="792.5" y2="1000" stroke="#F4F4F4"/>
<line x1="816.5" y1="280" x2="816.5" y2="1000" stroke="#F4F4F4"/>
<line x1="840.5" y1="280" x2="840.5" y2="1000" stroke="#F4F4F4"/>
<line x1="864.5" y1="280" x2="864.5" y2="1000" stroke="#F4F4F4"/>
<line x1="888.5" y1="280" x2="888.5" y2="1000" stroke="#F4F4F4"/>
<line x1="912.5" y1="280" x2="912.5" y2="1000" stroke="#F4F4F4"/>
<line x1="936.5" y1="280" x2="936.5" y2="1000" stroke="#F4F4F4"/>
<line x1="960.5" y1="280" x2="960.5" y2="1000" stroke="#F4F4F4"/>
<line x1="984.5" y1="280" x2="984.5" y2="1000" stroke="#F4F4F4"/>
<line x1="1008.5" y1="280" x2="1008.5" y2="1000" stroke="#F4F4F4"/>
<line x1="1032.5" y1="280" x2="1032.5" y2="1000" stroke="#F4F4F4"/>
<line x1="1056.5" y1="280" x2="1056.5" y2="1000" stroke="#F4F4F4"/>
<line x1="1080.5" y1="280" x2="1080.5" y2="1000" stroke="#F4F4F4"/>
<line x1="1104.5" y1="280" x2="1104.5" y2="1000" stroke="#F4F4F4"/>
<line x1="1128.5" y1="280" x2="1128.5" y2="1000" stroke="#F4F4F4"/>
<line x1="1152.5" y1="280" x2="1152.5" y2="1000" stroke="#F4F4F4"/>
<line x1="1176.5" y1="280" x2="1176.5" y2="1000" stroke="#F4F4F4"/>
<line x1="1200.5" y1="280" x2="1200.5" y2="1000" stroke="#F4F4F4"/>
<line x1="1224.5" y1="280" x2="1224.5" y2="1000" stroke="#F4F4F4"/>
<line x1="1248.5" y1="280" x2="1248.5" y2="1000" stroke="#F4F4F4"/>
<line x1="1272.5" y1="280" x2="1272.5" y2="1000" stroke="#F4F4F4"/>
<line x1="1296.5" y1="280" x2="1296.5" y2="1000" stroke="#F4F4F4"/>
<line x1="1320.5" y1="280" x2="1320.5" y2="1000" stroke="#F4F4F4"/>
<line x1="1344.5" y1="280" x2="1344.5" y2="1000" stroke="#F4F4F4"/>
<line x1="1368.5" y1="280" x2="1368.5" y2="1000" stroke="#F4F4F4"/>
<line x1="1392.5" y1="280" x2="1392.5" y2="1000" stroke="#F4F4F4"/>
<line x1="1416.5" y1="280" x2="1416.5" y2="1000" stroke="#F4F4F4"/>
<line x1="0.5" y1="-416" x2="0.499969" y2="304" stroke="#F4F4F4"/>
<line x1="1464" y1="16.5" x2="-24" y2="16.5" stroke="#F4F4F4"/>
<line x1="1464" y1="40.5" x2="-24" y2="40.5" stroke="#F4F4F4"/>
<line x1="1464" y1="64.5" x2="-24" y2="64.5" stroke="#F4F4F4"/>
<line x1="1464" y1="88.5" x2="-24" y2="88.5" stroke="#F4F4F4"/>
<line x1="1464" y1="112.5" x2="-24" y2="112.5" stroke="#F4F4F4"/>
<line x1="1464" y1="136.5" x2="-24" y2="136.5" stroke="#F4F4F4"/>
<line x1="1464" y1="160.5" x2="-24" y2="160.5" stroke="#F4F4F4"/>
<line x1="1464" y1="184.5" x2="-24" y2="184.5" stroke="#F4F4F4"/>
<line x1="1464" y1="208.5" x2="-24" y2="208.5" stroke="#F4F4F4"/>
<line x1="1464" y1="232.5" x2="-24" y2="232.5" stroke="#F4F4F4"/>
<line x1="1464" y1="256.5" x2="-24" y2="256.5" stroke="#F4F4F4"/>
<line x1="1464" y1="280.5" x2="-24" y2="280.5" stroke="#F4F4F4"/>
<line x1="24.5" y1="-416" x2="24.5" y2="304" stroke="#F4F4F4"/>
<line x1="24.5" y1="-416" x2="24.5" y2="304" stroke="#F4F4F4"/>
<line x1="48.5" y1="-416" x2="48.5" y2="304" stroke="#F4F4F4"/>
<line x1="72.5" y1="-416" x2="72.5" y2="304" stroke="#F4F4F4"/>
<line x1="96.5" y1="-416" x2="96.5" y2="304" stroke="#F4F4F4"/>
<line x1="120.5" y1="-416" x2="120.5" y2="304" stroke="#F4F4F4"/>
<line x1="144.5" y1="-416" x2="144.5" y2="304" stroke="#F4F4F4"/>
<line x1="168.5" y1="-416" x2="168.5" y2="304" stroke="#F4F4F4"/>
<line x1="192.5" y1="-416" x2="192.5" y2="304" stroke="#F4F4F4"/>
<line x1="216.5" y1="-416" x2="216.5" y2="304" stroke="#F4F4F4"/>
<line x1="240.5" y1="-416" x2="240.5" y2="304" stroke="#F4F4F4"/>
<line x1="264.5" y1="-416" x2="264.5" y2="304" stroke="#F4F4F4"/>
<line x1="288.5" y1="-416" x2="288.5" y2="304" stroke="#F4F4F4"/>
<line x1="312.5" y1="-416" x2="312.5" y2="304" stroke="#F4F4F4"/>
<line x1="336.5" y1="-416" x2="336.5" y2="304" stroke="#F4F4F4"/>
<line x1="360.5" y1="-416" x2="360.5" y2="304" stroke="#F4F4F4"/>
<line x1="384.5" y1="-416" x2="384.5" y2="304" stroke="#F4F4F4"/>
<line x1="408.5" y1="-416" x2="408.5" y2="304" stroke="#F4F4F4"/>
<line x1="432.5" y1="-416" x2="432.5" y2="304" stroke="#F4F4F4"/>
<line x1="456.5" y1="-416" x2="456.5" y2="304" stroke="#F4F4F4"/>
<line x1="480.5" y1="-416" x2="480.5" y2="304" stroke="#F4F4F4"/>
<line x1="504.5" y1="-416" x2="504.5" y2="304" stroke="#F4F4F4"/>
<line x1="528.5" y1="-416" x2="528.5" y2="304" stroke="#F4F4F4"/>
<line x1="552.5" y1="-416" x2="552.5" y2="304" stroke="#F4F4F4"/>
<line x1="576.5" y1="-416" x2="576.5" y2="304" stroke="#F4F4F4"/>
<line x1="600.5" y1="-416" x2="600.5" y2="304" stroke="#F4F4F4"/>
<line x1="624.5" y1="-416" x2="624.5" y2="304" stroke="#F4F4F4"/>
<line x1="648.5" y1="-416" x2="648.5" y2="304" stroke="#F4F4F4"/>
<line x1="672.5" y1="-416" x2="672.5" y2="304" stroke="#F4F4F4"/>
<line x1="696.5" y1="-416" x2="696.5" y2="304" stroke="#F4F4F4"/>
<line x1="720.5" y1="-416" x2="720.5" y2="304" stroke="#F4F4F4"/>
<line x1="744.5" y1="-416" x2="744.5" y2="304" stroke="#F4F4F4"/>
<line x1="768.5" y1="-416" x2="768.5" y2="304" stroke="#F4F4F4"/>
<line x1="792.5" y1="-416" x2="792.5" y2="304" stroke="#F4F4F4"/>
<line x1="816.5" y1="-416" x2="816.5" y2="304" stroke="#F4F4F4"/>
<line x1="840.5" y1="-416" x2="840.5" y2="304" stroke="#F4F4F4"/>
<line x1="864.5" y1="-416" x2="864.5" y2="304" stroke="#F4F4F4"/>
<line x1="888.5" y1="-416" x2="888.5" y2="304" stroke="#F4F4F4"/>
<line x1="912.5" y1="-416" x2="912.5" y2="304" stroke="#F4F4F4"/>
<line x1="936.5" y1="-416" x2="936.5" y2="304" stroke="#F4F4F4"/>
<line x1="960.5" y1="-416" x2="960.5" y2="304" stroke="#F4F4F4"/>
<line x1="984.5" y1="-416" x2="984.5" y2="304" stroke="#F4F4F4"/>
<line x1="1008.5" y1="-416" x2="1008.5" y2="304" stroke="#F4F4F4"/>
<line x1="1032.5" y1="-416" x2="1032.5" y2="304" stroke="#F4F4F4"/>
<line x1="1056.5" y1="-416" x2="1056.5" y2="304" stroke="#F4F4F4"/>
<line x1="1080.5" y1="-416" x2="1080.5" y2="304" stroke="#F4F4F4"/>
<line x1="1104.5" y1="-416" x2="1104.5" y2="304" stroke="#F4F4F4"/>
<line x1="1128.5" y1="-416" x2="1128.5" y2="304" stroke="#F4F4F4"/>
<line x1="1152.5" y1="-416" x2="1152.5" y2="304" stroke="#F4F4F4"/>
<line x1="1176.5" y1="-416" x2="1176.5" y2="304" stroke="#F4F4F4"/>
<line x1="1200.5" y1="-416" x2="1200.5" y2="304" stroke="#F4F4F4"/>
<line x1="1224.5" y1="-416" x2="1224.5" y2="304" stroke="#F4F4F4"/>
<line x1="1248.5" y1="-416" x2="1248.5" y2="304" stroke="#F4F4F4"/>
<line x1="1272.5" y1="-416" x2="1272.5" y2="304" stroke="#F4F4F4"/>
<line x1="1296.5" y1="-416" x2="1296.5" y2="304" stroke="#F4F4F4"/>
<line x1="1320.5" y1="-416" x2="1320.5" y2="304" stroke="#F4F4F4"/>
<line x1="1344.5" y1="-416" x2="1344.5" y2="304" stroke="#F4F4F4"/>
<line x1="1368.5" y1="-416" x2="1368.5" y2="304" stroke="#F4F4F4"/>
<line x1="1392.5" y1="-416" x2="1392.5" y2="304" stroke="#F4F4F4"/>
<line x1="1416.5" y1="-416" x2="1416.5" y2="304" stroke="#F4F4F4"/>
</g>
</svg>
