<svg width="592" height="199" viewBox="0 0 592 199" fill="none" xmlns="http://www.w3.org/2000/svg">
<g filter="url(#filter0_d_6795_1564)">
<rect x="-174" y="20.4766" width="717.188" height="510" rx="17.2125" fill="white"/>
<path d="M149.233 121.145C148.587 121.145 147.978 121.019 147.404 120.768C146.83 120.517 146.331 120.162 145.907 119.702C145.488 119.241 145.187 118.697 145.001 118.07L147.09 117.505C147.24 118.019 147.511 118.417 147.906 118.697C148.306 118.972 148.746 119.107 149.224 119.101C149.648 119.101 150.028 119.002 150.362 118.805C150.697 118.608 150.96 118.342 151.151 118.007C151.342 117.667 151.438 117.287 151.438 116.869C151.438 116.229 151.232 115.694 150.819 115.264C150.407 114.834 149.875 114.618 149.224 114.618C149.027 114.618 148.832 114.645 148.641 114.699C148.456 114.753 148.276 114.828 148.103 114.923L147.117 113.22L151.456 109.509L151.644 110.028H145.503V107.993H153.419V110.037L149.932 113.39L149.914 112.754C150.697 112.808 151.363 113.026 151.913 113.408C152.469 113.791 152.893 114.284 153.186 114.887C153.485 115.491 153.634 116.151 153.634 116.869C153.634 117.681 153.434 118.411 153.034 119.056C152.639 119.702 152.107 120.213 151.438 120.589C150.775 120.96 150.04 121.145 149.233 121.145Z" fill="#4A5451"/>
<path d="M108.199 132.903V127.839H106.243V127.165H110.865V127.839H108.908V132.903H108.199ZM111.499 132.903V127.165H113.766C113.822 127.165 113.888 127.168 113.965 127.173C114.042 127.176 114.117 127.184 114.188 127.197C114.499 127.245 114.76 127.351 114.969 127.516C115.182 127.681 115.341 127.889 115.448 128.142C115.554 128.391 115.607 128.669 115.607 128.974C115.607 129.418 115.491 129.803 115.26 130.13C115.029 130.454 114.691 130.657 114.244 130.739L113.973 130.783H112.208V132.903H111.499ZM114.914 132.903L113.782 130.568L114.483 130.353L115.726 132.903H114.914ZM112.208 130.11H113.742C113.793 130.11 113.85 130.107 113.914 130.102C113.98 130.097 114.042 130.087 114.101 130.074C114.284 130.031 114.433 129.954 114.547 129.843C114.664 129.729 114.749 129.596 114.802 129.444C114.855 129.29 114.882 129.134 114.882 128.974C114.882 128.815 114.855 128.659 114.802 128.508C114.749 128.354 114.664 128.22 114.547 128.106C114.433 127.991 114.284 127.914 114.101 127.875C114.042 127.859 113.98 127.849 113.914 127.847C113.85 127.841 113.793 127.839 113.742 127.839H112.208V130.11ZM116.206 132.903L118.126 127.165H119.114L121.035 132.903H120.298L118.501 127.58H118.724L116.943 132.903H116.206ZM117.13 131.56V130.895H120.11V131.56H117.13ZM123.951 133.022C123.38 133.022 122.895 132.896 122.497 132.644C122.098 132.392 121.794 132.041 121.584 131.592C121.377 131.143 121.274 130.624 121.274 130.034C121.274 129.444 121.377 128.925 121.584 128.476C121.794 128.027 122.098 127.677 122.497 127.424C122.895 127.172 123.38 127.046 123.951 127.046C124.615 127.046 125.161 127.214 125.589 127.552C126.019 127.889 126.315 128.343 126.477 128.914L125.756 129.106C125.639 128.678 125.431 128.341 125.13 128.094C124.83 127.847 124.437 127.723 123.951 127.723C123.523 127.723 123.167 127.82 122.883 128.014C122.599 128.208 122.385 128.479 122.242 128.827C122.098 129.172 122.025 129.575 122.023 130.034C122.02 130.491 122.09 130.893 122.234 131.241C122.377 131.587 122.592 131.858 122.879 132.054C123.166 132.248 123.523 132.345 123.951 132.345C124.437 132.345 124.83 132.222 125.13 131.974C125.431 131.725 125.639 131.387 125.756 130.962L126.477 131.154C126.315 131.722 126.019 132.176 125.589 132.516C125.161 132.854 124.615 133.022 123.951 133.022ZM127.351 132.903V127.165H128.06V129.859L130.57 127.165H131.463L128.857 129.95L131.666 132.903H130.75L128.06 130.098V132.903H127.351ZM132.222 132.903V127.165H135.848V127.839H132.932V129.636H135.37V130.309H132.932V132.229H135.848V132.903H132.222ZM136.806 132.903V127.165H138.575C138.634 127.165 138.736 127.167 138.882 127.169C139.028 127.172 139.167 127.183 139.3 127.201C139.744 127.26 140.114 127.422 140.412 127.687C140.712 127.95 140.938 128.285 141.089 128.691C141.241 129.098 141.316 129.545 141.316 130.034C141.316 130.523 141.241 130.97 141.089 131.377C140.938 131.783 140.712 132.119 140.412 132.385C140.114 132.648 139.744 132.809 139.3 132.867C139.167 132.883 139.027 132.894 138.878 132.899C138.732 132.902 138.631 132.903 138.575 132.903H136.806ZM137.535 132.225H138.575C138.676 132.225 138.789 132.223 138.914 132.218C139.039 132.21 139.148 132.198 139.24 132.182C139.554 132.123 139.808 131.992 140.002 131.787C140.195 131.583 140.338 131.328 140.428 131.022C140.518 130.717 140.563 130.387 140.563 130.034C140.563 129.673 140.517 129.339 140.424 129.034C140.334 128.729 140.191 128.475 139.998 128.273C139.804 128.071 139.551 127.942 139.24 127.887C139.148 127.868 139.037 127.856 138.91 127.851C138.782 127.845 138.671 127.843 138.575 127.843H137.535V132.225ZM143.427 132.903L145.347 127.165H146.336L148.256 132.903H147.519L145.722 127.58H145.945L144.164 132.903H143.427ZM144.351 131.56V130.895H147.332V131.56H144.351ZM148.969 132.903V127.165H151.236C151.292 127.165 151.359 127.168 151.436 127.173C151.513 127.176 151.587 127.184 151.659 127.197C151.97 127.245 152.23 127.351 152.44 127.516C152.652 127.681 152.812 127.889 152.918 128.142C153.024 128.391 153.077 128.669 153.077 128.974C153.077 129.277 153.023 129.555 152.914 129.807C152.808 130.057 152.648 130.265 152.436 130.433C152.226 130.597 151.967 130.703 151.659 130.751C151.587 130.762 151.513 130.77 151.436 130.775C151.359 130.78 151.292 130.783 151.236 130.783H149.679V132.903H148.969ZM149.679 130.11H151.212C151.263 130.11 151.32 130.107 151.384 130.102C151.45 130.097 151.513 130.087 151.571 130.074C151.754 130.031 151.903 129.954 152.017 129.843C152.134 129.729 152.219 129.596 152.272 129.444C152.325 129.29 152.352 129.134 152.352 128.974C152.352 128.815 152.325 128.659 152.272 128.508C152.219 128.354 152.134 128.22 152.017 128.106C151.903 127.991 151.754 127.914 151.571 127.875C151.513 127.859 151.45 127.849 151.384 127.847C151.32 127.841 151.263 127.839 151.212 127.839H149.679V130.11ZM153.872 132.903V127.165H156.139C156.195 127.165 156.261 127.168 156.338 127.173C156.415 127.176 156.49 127.184 156.561 127.197C156.872 127.245 157.132 127.351 157.342 127.516C157.555 127.681 157.714 127.889 157.82 128.142C157.927 128.391 157.98 128.669 157.98 128.974C157.98 129.277 157.925 129.555 157.816 129.807C157.71 130.057 157.551 130.265 157.338 130.433C157.128 130.597 156.87 130.703 156.561 130.751C156.49 130.762 156.415 130.77 156.338 130.775C156.261 130.78 156.195 130.783 156.139 130.783H154.581V132.903H153.872ZM154.581 130.11H156.115C156.166 130.11 156.223 130.107 156.286 130.102C156.353 130.097 156.415 130.087 156.474 130.074C156.657 130.031 156.806 129.954 156.92 129.843C157.037 129.729 157.122 129.596 157.175 129.444C157.228 129.29 157.255 129.134 157.255 128.974C157.255 128.815 157.228 128.659 157.175 128.508C157.122 128.354 157.037 128.22 156.92 128.106C156.806 127.991 156.657 127.914 156.474 127.875C156.415 127.859 156.353 127.849 156.286 127.847C156.223 127.841 156.166 127.839 156.115 127.839H154.581V130.11ZM158.854 132.903V127.165H159.563V132.229H162.225V132.903H158.854ZM162.979 132.903V127.165H163.688V132.903H162.979ZM167.242 133.022C166.671 133.022 166.186 132.896 165.788 132.644C165.389 132.392 165.085 132.041 164.875 131.592C164.668 131.143 164.565 130.624 164.565 130.034C164.565 129.444 164.668 128.925 164.875 128.476C165.085 128.027 165.389 127.677 165.788 127.424C166.186 127.172 166.671 127.046 167.242 127.046C167.906 127.046 168.452 127.214 168.88 127.552C169.31 127.889 169.606 128.343 169.768 128.914L169.047 129.106C168.93 128.678 168.722 128.341 168.422 128.094C168.121 127.847 167.728 127.723 167.242 127.723C166.815 127.723 166.459 127.82 166.174 128.014C165.89 128.208 165.676 128.479 165.533 128.827C165.389 129.172 165.316 129.575 165.314 130.034C165.311 130.491 165.381 130.893 165.525 131.241C165.668 131.587 165.884 131.858 166.17 132.054C166.457 132.248 166.815 132.345 167.242 132.345C167.728 132.345 168.121 132.222 168.422 131.974C168.722 131.725 168.93 131.387 169.047 130.962L169.768 131.154C169.606 131.722 169.31 132.176 168.88 132.516C168.452 132.854 167.906 133.022 167.242 133.022ZM170.088 132.903L172.009 127.165H172.997L174.917 132.903H174.18L172.383 127.58H172.606L170.825 132.903H170.088ZM171.012 131.56V130.895H173.993V131.56H171.012ZM176.634 132.903V127.839H174.678V127.165H179.299V127.839H177.343V132.903H176.634ZM180.013 132.903V127.165H180.723V132.903H180.013ZM184.277 133.022C183.706 133.022 183.221 132.896 182.823 132.644C182.424 132.392 182.12 132.041 181.91 131.592C181.703 131.143 181.599 130.624 181.599 130.034C181.599 129.444 181.703 128.925 181.91 128.476C182.12 128.027 182.424 127.677 182.823 127.424C183.221 127.172 183.706 127.046 184.277 127.046C184.851 127.046 185.337 127.172 185.735 127.424C186.134 127.677 186.436 128.027 186.644 128.476C186.851 128.925 186.954 129.444 186.954 130.034C186.954 130.624 186.851 131.143 186.644 131.592C186.436 132.041 186.134 132.392 185.735 132.644C185.337 132.896 184.851 133.022 184.277 133.022ZM184.277 132.345C184.705 132.348 185.061 132.252 185.345 132.058C185.632 131.862 185.845 131.589 185.986 131.241C186.13 130.893 186.201 130.491 186.201 130.034C186.201 129.575 186.13 129.172 185.986 128.827C185.845 128.482 185.632 128.212 185.345 128.018C185.061 127.824 184.705 127.726 184.277 127.723C183.849 127.72 183.493 127.816 183.209 128.01C182.928 128.204 182.715 128.475 182.572 128.823C182.428 129.171 182.355 129.575 182.352 130.034C182.35 130.491 182.42 130.892 182.564 131.237C182.707 131.583 182.921 131.854 183.205 132.05C183.492 132.244 183.849 132.342 184.277 132.345ZM187.755 132.903V127.165H188.472L191.464 131.648V127.165H192.181V132.903H191.464L188.472 128.416V132.903H187.755Z" fill="#757877"/>
<path d="M366.391 121.172C365.476 121.172 364.67 120.978 363.97 120.589C363.271 120.195 362.724 119.648 362.33 118.948C361.941 118.249 361.747 117.442 361.747 116.528V112.368C361.747 111.454 361.941 110.647 362.33 109.948C362.724 109.249 363.271 108.705 363.97 108.316C364.67 107.922 365.476 107.725 366.391 107.725C367.305 107.725 368.109 107.922 368.802 108.316C369.502 108.705 370.048 109.249 370.443 109.948C370.837 110.647 371.035 111.454 371.035 112.368V116.528C371.035 117.442 370.837 118.249 370.443 118.948C370.048 119.648 369.502 120.195 368.802 120.589C368.109 120.978 367.305 121.172 366.391 121.172ZM366.391 119.119C366.845 119.119 367.257 119.011 367.628 118.796C367.998 118.575 368.291 118.282 368.506 117.918C368.722 117.547 368.829 117.135 368.829 116.68V112.207C368.829 111.747 368.722 111.334 368.506 110.97C368.291 110.599 367.998 110.306 367.628 110.091C367.257 109.87 366.845 109.76 366.391 109.76C365.937 109.76 365.524 109.87 365.154 110.091C364.783 110.306 364.49 110.599 364.275 110.97C364.06 111.334 363.952 111.747 363.952 112.207V116.68C363.952 117.135 364.06 117.547 364.275 117.918C364.49 118.282 364.783 118.575 365.154 118.796C365.524 119.011 365.937 119.119 366.391 119.119Z" fill="#4A5451"/>
<path d="M306.95 132.903V127.165H310.576V127.839H307.66V129.636H310.098V130.309H307.66V132.229H310.576V132.903H306.95ZM311.056 132.903L313.028 129.998L311.108 127.165H311.972L313.458 129.401L314.941 127.165H315.809L313.889 129.998L315.857 132.903H314.992L313.458 130.6L311.924 132.903H311.056ZM316.491 132.903V127.165H318.758C318.814 127.165 318.88 127.168 318.957 127.173C319.034 127.176 319.109 127.184 319.181 127.197C319.491 127.245 319.752 127.351 319.961 127.516C320.174 127.681 320.333 127.889 320.44 128.142C320.546 128.391 320.599 128.669 320.599 128.974C320.599 129.277 320.545 129.555 320.436 129.807C320.329 130.057 320.17 130.265 319.958 130.433C319.748 130.597 319.489 130.703 319.181 130.751C319.109 130.762 319.034 130.77 318.957 130.775C318.88 130.78 318.814 130.783 318.758 130.783H317.2V132.903H316.491ZM317.2 130.11H318.734C318.785 130.11 318.842 130.107 318.906 130.102C318.972 130.097 319.034 130.087 319.093 130.074C319.276 130.031 319.425 129.954 319.539 129.843C319.656 129.729 319.741 129.596 319.794 129.444C319.847 129.29 319.874 129.134 319.874 128.974C319.874 128.815 319.847 128.659 319.794 128.508C319.741 128.354 319.656 128.22 319.539 128.106C319.425 127.991 319.276 127.914 319.093 127.875C319.034 127.859 318.972 127.849 318.906 127.847C318.842 127.841 318.785 127.839 318.734 127.839H317.2V130.11ZM321.394 132.903V127.165H323.661C323.717 127.165 323.783 127.168 323.86 127.173C323.937 127.176 324.011 127.184 324.083 127.197C324.394 127.245 324.654 127.351 324.864 127.516C325.077 127.681 325.236 127.889 325.342 128.142C325.449 128.391 325.502 128.669 325.502 128.974C325.502 129.418 325.386 129.803 325.155 130.13C324.924 130.454 324.585 130.657 324.139 130.739L323.868 130.783H322.103V132.903H321.394ZM324.808 132.903L323.677 130.568L324.378 130.353L325.621 132.903H324.808ZM322.103 130.11H323.637C323.687 130.11 323.745 130.107 323.808 130.102C323.875 130.097 323.937 130.087 323.996 130.074C324.179 130.031 324.328 129.954 324.442 129.843C324.559 129.729 324.644 129.596 324.697 129.444C324.75 129.29 324.776 129.134 324.776 128.974C324.776 128.815 324.75 128.659 324.697 128.508C324.644 128.354 324.559 128.22 324.442 128.106C324.328 127.991 324.179 127.914 323.996 127.875C323.937 127.859 323.875 127.849 323.808 127.847C323.745 127.841 323.687 127.839 323.637 127.839H322.103V130.11ZM326.578 132.903V127.165H327.288V132.903H326.578ZM329.539 132.903V130.516L327.606 127.165H328.431L329.897 129.703L331.36 127.165H332.184L330.256 130.516V132.903H329.539ZM336.375 133.022C335.804 133.022 335.319 132.896 334.921 132.644C334.522 132.392 334.218 132.041 334.008 131.592C333.801 131.143 333.697 130.624 333.697 130.034C333.697 129.444 333.801 128.925 334.008 128.476C334.218 128.027 334.522 127.677 334.921 127.424C335.319 127.172 335.804 127.046 336.375 127.046C337.039 127.046 337.585 127.214 338.012 127.552C338.443 127.889 338.739 128.343 338.901 128.914L338.18 129.106C338.063 128.678 337.854 128.341 337.554 128.094C337.254 127.847 336.861 127.723 336.375 127.723C335.947 127.723 335.591 127.82 335.307 128.014C335.023 128.208 334.809 128.479 334.666 128.827C334.522 129.172 334.449 129.575 334.446 130.034C334.444 130.491 334.514 130.893 334.658 131.241C334.801 131.587 335.016 131.858 335.303 132.054C335.59 132.248 335.947 132.345 336.375 132.345C336.861 132.345 337.254 132.222 337.554 131.974C337.854 131.725 338.063 131.387 338.18 130.962L338.901 131.154C338.739 131.722 338.443 132.176 338.012 132.516C337.585 132.854 337.039 133.022 336.375 133.022ZM342.134 133.022C341.562 133.022 341.078 132.896 340.679 132.644C340.281 132.392 339.977 132.041 339.767 131.592C339.56 131.143 339.456 130.624 339.456 130.034C339.456 129.444 339.56 128.925 339.767 128.476C339.977 128.027 340.281 127.677 340.679 127.424C341.078 127.172 341.562 127.046 342.134 127.046C342.707 127.046 343.193 127.172 343.592 127.424C343.99 127.677 344.293 128.027 344.5 128.476C344.707 128.925 344.811 129.444 344.811 130.034C344.811 130.624 344.707 131.143 344.5 131.592C344.293 132.041 343.99 132.392 343.592 132.644C343.193 132.896 342.707 133.022 342.134 133.022ZM342.134 132.345C342.561 132.348 342.917 132.252 343.201 132.058C343.488 131.862 343.702 131.589 343.843 131.241C343.986 130.893 344.058 130.491 344.058 130.034C344.058 129.575 343.986 129.172 343.843 128.827C343.702 128.482 343.488 128.212 343.201 128.018C342.917 127.824 342.561 127.726 342.134 127.723C341.706 127.72 341.35 127.816 341.066 128.01C340.784 128.204 340.572 128.475 340.428 128.823C340.285 129.171 340.212 129.575 340.209 130.034C340.206 130.491 340.277 130.892 340.42 131.237C340.564 131.583 340.778 131.854 341.062 132.05C341.349 132.244 341.706 132.342 342.134 132.345ZM347.874 133.022C347.431 133.022 347.039 132.931 346.699 132.747C346.359 132.564 346.092 132.308 345.898 131.978C345.707 131.646 345.611 131.257 345.611 130.811V127.169L346.328 127.165V130.751C346.328 131.022 346.374 131.259 346.464 131.46C346.557 131.66 346.679 131.826 346.831 131.959C346.982 132.091 347.148 132.191 347.329 132.257C347.512 132.321 347.694 132.353 347.874 132.353C348.058 132.353 348.241 132.32 348.424 132.253C348.608 132.187 348.774 132.089 348.922 131.959C349.074 131.826 349.195 131.658 349.285 131.457C349.375 131.255 349.42 131.02 349.42 130.751V127.165H350.138V130.811C350.138 131.255 350.041 131.642 349.847 131.974C349.655 132.307 349.39 132.564 349.05 132.747C348.71 132.931 348.318 133.022 347.874 133.022ZM351.253 132.903V127.165H351.97L354.963 131.648V127.165H355.68V132.903H354.963L351.97 128.416V132.903H351.253ZM358.272 132.903V127.839H356.316V127.165H360.938V127.839H358.981V132.903H358.272ZM362.926 132.903V127.165H366.273V127.875H363.635V129.679H365.795V130.389H363.635V132.903H362.926ZM369.347 133.022C368.776 133.022 368.291 132.896 367.893 132.644C367.494 132.392 367.19 132.041 366.98 131.592C366.773 131.143 366.67 130.624 366.67 130.034C366.67 129.444 366.773 128.925 366.98 128.476C367.19 128.027 367.494 127.677 367.893 127.424C368.291 127.172 368.776 127.046 369.347 127.046C369.921 127.046 370.407 127.172 370.805 127.424C371.204 127.677 371.507 128.027 371.714 128.476C371.921 128.925 372.025 129.444 372.025 130.034C372.025 130.624 371.921 131.143 371.714 131.592C371.507 132.041 371.204 132.392 370.805 132.644C370.407 132.896 369.921 133.022 369.347 133.022ZM369.347 132.345C369.775 132.348 370.131 132.252 370.415 132.058C370.702 131.862 370.916 131.589 371.056 131.241C371.2 130.893 371.272 130.491 371.272 130.034C371.272 129.575 371.2 129.172 371.056 128.827C370.916 128.482 370.702 128.212 370.415 128.018C370.131 127.824 369.775 127.726 369.347 127.723C368.919 127.72 368.564 127.816 368.279 128.01C367.998 128.204 367.785 128.475 367.642 128.823C367.498 129.171 367.425 129.575 367.423 130.034C367.42 130.491 367.49 130.892 367.634 131.237C367.777 131.583 367.991 131.854 368.275 132.05C368.562 132.244 368.919 132.342 369.347 132.345ZM372.825 132.903V127.165H375.092C375.148 127.165 375.214 127.168 375.291 127.173C375.368 127.176 375.443 127.184 375.514 127.197C375.825 127.245 376.085 127.351 376.295 127.516C376.508 127.681 376.667 127.889 376.773 128.142C376.88 128.391 376.933 128.669 376.933 128.974C376.933 129.418 376.817 129.803 376.586 130.13C376.355 130.454 376.016 130.657 375.57 130.739L375.299 130.783H373.534V132.903H372.825ZM376.239 132.903L375.108 130.568L375.809 130.353L377.052 132.903H376.239ZM373.534 130.11H375.068C375.119 130.11 375.176 130.107 375.239 130.102C375.306 130.097 375.368 130.087 375.427 130.074C375.61 130.031 375.759 129.954 375.873 129.843C375.99 129.729 376.075 129.596 376.128 129.444C376.181 129.29 376.208 129.134 376.208 128.974C376.208 128.815 376.181 128.659 376.128 128.508C376.075 128.354 375.99 128.22 375.873 128.106C375.759 127.991 375.61 127.914 375.427 127.875C375.368 127.859 375.306 127.849 375.239 127.847C375.176 127.841 375.119 127.839 375.068 127.839H373.534V130.11ZM379.525 132.903V127.165H380.242L383.235 131.648V127.165H383.952V132.903H383.235L380.242 128.416V132.903H379.525ZM385.066 132.903V127.165H388.692V127.839H385.775V129.636H388.214V130.309H385.775V132.229H388.692V132.903H385.066ZM389.171 132.903L391.144 129.998L389.223 127.165H390.088L391.574 129.401L393.056 127.165H393.925L392.004 129.998L393.973 132.903H393.108L391.574 130.6L390.04 132.903H389.171ZM396.404 132.903V127.839H394.448V127.165H399.069V127.839H397.113V132.903H396.404ZM401.361 132.903L403.425 127.847H400.819V127.165H404.186V127.847L402.126 132.903H401.361ZM406.739 132.903V127.165H408.508C408.566 127.165 408.669 127.167 408.815 127.169C408.961 127.172 409.1 127.183 409.233 127.201C409.677 127.26 410.047 127.422 410.345 127.687C410.645 127.95 410.871 128.285 411.022 128.691C411.173 129.098 411.249 129.545 411.249 130.034C411.249 130.523 411.173 130.97 411.022 131.377C410.871 131.783 410.645 132.119 410.345 132.385C410.047 132.648 409.677 132.809 409.233 132.867C409.1 132.883 408.959 132.894 408.811 132.899C408.665 132.902 408.564 132.903 408.508 132.903H406.739ZM407.468 132.225H408.508C408.609 132.225 408.722 132.223 408.846 132.218C408.971 132.21 409.08 132.198 409.173 132.182C409.487 132.123 409.74 131.992 409.934 131.787C410.128 131.583 410.27 131.328 410.361 131.022C410.451 130.717 410.496 130.387 410.496 130.034C410.496 129.673 410.45 129.339 410.357 129.034C410.266 128.729 410.124 128.475 409.93 128.273C409.736 128.071 409.484 127.942 409.173 127.887C409.08 127.868 408.97 127.856 408.843 127.851C408.715 127.845 408.603 127.843 408.508 127.843H407.468V132.225ZM411.609 132.903L413.529 127.165H414.517L416.438 132.903H415.701L413.904 127.58H414.127L412.346 132.903H411.609ZM412.533 131.56V130.895H415.513V131.56H412.533ZM418.051 132.903V130.516L416.119 127.165H416.943L418.41 129.703L419.872 127.165H420.697L418.768 130.516V132.903H418.051ZM423.047 133.022C422.641 133.022 422.274 132.953 421.947 132.815C421.623 132.677 421.355 132.48 421.142 132.225C420.933 131.968 420.796 131.664 420.732 131.313L421.465 131.198C421.558 131.559 421.751 131.842 422.043 132.046C422.338 132.248 422.684 132.349 423.083 132.349C423.34 132.349 423.573 132.309 423.78 132.229C423.99 132.147 424.156 132.03 424.278 131.879C424.4 131.727 424.461 131.548 424.461 131.341C424.461 131.213 424.439 131.105 424.394 131.014C424.351 130.921 424.291 130.843 424.214 130.779C424.14 130.713 424.055 130.657 423.959 130.612C423.864 130.567 423.764 130.529 423.661 130.5L422.198 130.066C422.039 130.018 421.885 129.958 421.736 129.887C421.587 129.812 421.455 129.721 421.338 129.612C421.221 129.5 421.128 129.367 421.059 129.213C420.99 129.057 420.955 128.872 420.955 128.659C420.955 128.319 421.043 128.03 421.218 127.791C421.396 127.549 421.636 127.365 421.939 127.237C422.242 127.11 422.583 127.047 422.963 127.05C423.348 127.052 423.692 127.122 423.995 127.257C424.301 127.39 424.553 127.581 424.752 127.831C424.954 128.08 425.09 128.379 425.159 128.727L424.406 128.859C424.366 128.625 424.277 128.424 424.139 128.257C424.003 128.087 423.833 127.957 423.629 127.867C423.424 127.774 423.2 127.726 422.955 127.723C422.722 127.72 422.51 127.758 422.322 127.835C422.133 127.912 421.983 128.019 421.872 128.157C421.76 128.293 421.704 128.45 421.704 128.628C421.704 128.803 421.755 128.945 421.856 129.054C421.957 129.16 422.08 129.245 422.226 129.309C422.375 129.37 422.52 129.42 422.66 129.46L423.752 129.775C423.877 129.81 424.02 129.857 424.182 129.919C424.347 129.98 424.507 130.066 424.661 130.178C424.815 130.286 424.942 130.433 425.043 130.616C425.144 130.796 425.195 131.025 425.195 131.301C425.195 131.577 425.139 131.823 425.027 132.038C424.918 132.253 424.766 132.434 424.569 132.58C424.372 132.724 424.144 132.832 423.884 132.907C423.623 132.984 423.344 133.022 423.047 133.022Z" fill="#757877"/>
<rect x="-104.027" y="161.797" width="577.236" height="29.4238" rx="14.7119" stroke="#E3E3E3" stroke-width="0.498047"/>
<path d="M343.709 54.374L345.685 48.6365H346.462L348.439 54.374H347.829L345.952 48.9632H346.183L344.319 54.374H343.709ZM344.59 52.9835V52.4336H347.554V52.9835H344.59ZM351.091 54.4936C350.695 54.4936 350.36 54.3939 350.086 54.1947C349.813 53.9929 349.606 53.7206 349.465 53.3779C349.324 53.0326 349.254 52.6461 349.254 52.2185C349.254 51.7829 349.324 51.395 349.465 51.055C349.608 50.7124 349.818 50.4428 350.094 50.2462C350.371 50.0496 350.711 49.9514 351.114 49.9514C351.508 49.9514 351.845 50.051 352.126 50.2502C352.408 50.4494 352.623 50.7204 352.772 51.063C352.923 51.4057 352.999 51.7908 352.999 52.2185C352.999 52.6488 352.923 53.0353 352.772 53.3779C352.621 53.7206 352.403 53.9929 352.119 54.1947C351.834 54.3939 351.492 54.4936 351.091 54.4936ZM349.154 56.2865V50.0709H349.68V53.3102H349.744V56.2865H349.154ZM351.031 53.9477C351.331 53.9477 351.581 53.872 351.78 53.7206C351.979 53.5692 352.128 53.3633 352.226 53.103C352.327 52.84 352.377 52.5452 352.377 52.2185C352.377 51.8944 352.328 51.6022 352.23 51.3419C352.132 51.0816 351.982 50.8757 351.78 50.7243C351.581 50.5729 351.327 50.4972 351.019 50.4972C350.719 50.4972 350.469 50.5703 350.27 50.7164C350.073 50.8625 349.926 51.0657 349.827 51.326C349.729 51.5836 349.68 51.8811 349.68 52.2185C349.68 52.5505 349.729 52.848 349.827 53.111C349.926 53.3713 350.075 53.5758 350.274 53.7246C350.473 53.8733 350.725 53.9477 351.031 53.9477ZM355.806 54.4936C355.411 54.4936 355.076 54.3939 354.802 54.1947C354.529 53.9929 354.322 53.7206 354.181 53.3779C354.04 53.0326 353.97 52.6461 353.97 52.2185C353.97 51.7829 354.04 51.395 354.181 51.055C354.324 50.7124 354.534 50.4428 354.81 50.2462C355.087 50.0496 355.427 49.9514 355.83 49.9514C356.223 49.9514 356.561 50.051 356.842 50.2502C357.124 50.4494 357.339 50.7204 357.488 51.063C357.639 51.4057 357.715 51.7908 357.715 52.2185C357.715 52.6488 357.639 53.0353 357.488 53.3779C357.336 53.7206 357.119 53.9929 356.834 54.1947C356.55 54.3939 356.208 54.4936 355.806 54.4936ZM353.87 56.2865V50.0709H354.396V53.3102H354.46V56.2865H353.87ZM355.747 53.9477C356.047 53.9477 356.297 53.872 356.496 53.7206C356.695 53.5692 356.844 53.3633 356.942 53.103C357.043 52.84 357.093 52.5452 357.093 52.2185C357.093 51.8944 357.044 51.6022 356.946 51.3419C356.848 51.0816 356.698 50.8757 356.496 50.7243C356.297 50.5729 356.043 50.4972 355.735 50.4972C355.435 50.4972 355.185 50.5703 354.986 50.7164C354.789 50.8625 354.642 51.0657 354.543 51.326C354.445 51.5836 354.396 51.8811 354.396 52.2185C354.396 52.5505 354.445 52.848 354.543 53.111C354.642 53.3713 354.79 53.5758 354.99 53.7246C355.189 53.8733 355.441 53.9477 355.747 53.9477ZM358.67 54.374V48.517H359.255V54.374H358.67ZM360.529 49.2541V48.5967H361.115V49.2541H360.529ZM360.529 54.374V50.0709H361.115V54.374H360.529ZM364.095 54.4936C363.662 54.4936 363.295 54.3966 362.995 54.2027C362.695 54.0088 362.466 53.7418 362.31 53.4018C362.156 53.0592 362.076 52.6661 362.071 52.2225C362.076 51.7709 362.158 51.3751 362.318 51.0351C362.477 50.6925 362.707 50.4268 363.007 50.2382C363.307 50.047 363.671 49.9514 364.099 49.9514C364.534 49.9514 364.913 50.0576 365.234 50.2701C365.558 50.4826 365.78 50.7735 365.9 51.1427L365.326 51.326C365.225 51.0683 365.064 50.8691 364.844 50.7283C364.626 50.5849 364.376 50.5132 364.095 50.5132C363.779 50.5132 363.517 50.5862 363.31 50.7323C363.103 50.8757 362.949 51.0763 362.848 51.3339C362.747 51.5916 362.695 51.8878 362.692 52.2225C362.697 52.7378 362.817 53.1521 363.051 53.4656C363.285 53.7764 363.632 53.9318 364.095 53.9318C364.387 53.9318 364.635 53.8654 364.84 53.7325C365.047 53.5971 365.204 53.4005 365.31 53.1429L365.9 53.3182C365.74 53.7007 365.506 53.9929 365.198 54.1947C364.89 54.3939 364.522 54.4936 364.095 54.4936ZM367.93 54.4936C367.606 54.4936 367.334 54.4351 367.113 54.3182C366.895 54.2014 366.732 54.046 366.623 53.8521C366.514 53.6582 366.46 53.447 366.46 53.2186C366.46 52.9848 366.506 52.7856 366.599 52.6209C366.695 52.4536 366.824 52.3168 366.986 52.2105C367.15 52.1043 367.34 52.0232 367.555 51.9675C367.773 51.9143 368.014 51.8679 368.277 51.828C368.542 51.7855 368.801 51.7496 369.053 51.7204C369.308 51.6886 369.532 51.658 369.723 51.6288L369.516 51.7563C369.524 51.3313 369.441 51.0165 369.269 50.812C369.096 50.6075 368.796 50.5052 368.368 50.5052C368.073 50.5052 367.824 50.5716 367.619 50.7044C367.417 50.8372 367.275 51.0471 367.193 51.3339L366.623 51.1666C366.721 50.7814 366.919 50.4826 367.217 50.2701C367.514 50.0576 367.901 49.9514 368.376 49.9514C368.769 49.9514 369.103 50.0257 369.376 50.1745C369.652 50.3206 369.848 50.5331 369.962 50.812C370.015 50.9368 370.05 51.0763 370.066 51.2304C370.081 51.3844 370.089 51.5411 370.089 51.7005V54.374H369.567V53.2943L369.719 53.358C369.573 53.7272 369.346 54.0088 369.038 54.2027C368.729 54.3966 368.36 54.4936 367.93 54.4936ZM367.998 53.9875C368.271 53.9875 368.51 53.9384 368.715 53.8401C368.919 53.7418 369.084 53.6077 369.209 53.4377C369.334 53.265 369.415 53.0711 369.452 52.856C369.484 52.7179 369.501 52.5664 369.504 52.4018C369.506 52.2344 369.508 52.1096 369.508 52.0272L369.731 52.1428C369.532 52.1693 369.315 52.1959 369.081 52.2225C368.85 52.249 368.622 52.2796 368.396 52.3141C368.173 52.3486 367.971 52.3898 367.79 52.4376C367.668 52.4721 367.55 52.5213 367.436 52.585C367.322 52.6461 367.227 52.7285 367.153 52.8321C367.081 52.9357 367.045 53.0645 367.045 53.2186C367.045 53.3434 367.076 53.4643 367.137 53.5811C367.201 53.698 367.302 53.795 367.44 53.872C367.581 53.949 367.767 53.9875 367.998 53.9875ZM373.469 54.374C373.228 54.4245 372.989 54.4444 372.752 54.4338C372.519 54.4232 372.309 54.3727 372.123 54.2824C371.939 54.1921 371.8 54.0513 371.704 53.86C371.627 53.7007 371.585 53.54 371.577 53.3779C371.572 53.2132 371.569 53.026 371.569 52.8161V48.8756H372.151V52.7922C372.151 52.9729 372.152 53.1243 372.155 53.2464C372.16 53.366 372.188 53.4722 372.238 53.5652C372.334 53.7432 372.485 53.8494 372.693 53.8839C372.902 53.9185 373.161 53.9105 373.469 53.86V54.374ZM370.649 50.5729V50.0709H373.469V50.5729H370.649ZM374.397 49.2541V48.5967H374.983V49.2541H374.397ZM374.397 54.374V50.0709H374.983V54.374H374.397ZM377.974 54.4936C377.546 54.4936 377.181 54.3966 376.878 54.2027C376.576 54.0088 376.343 53.7405 376.181 53.3979C376.019 53.0552 375.938 52.6621 375.938 52.2185C375.938 51.7669 376.02 51.3711 376.185 51.0311C376.35 50.6911 376.584 50.4268 376.886 50.2382C377.192 50.047 377.554 49.9514 377.974 49.9514C378.404 49.9514 378.771 50.0483 379.074 50.2422C379.379 50.4335 379.612 50.7004 379.771 51.0431C379.933 51.3831 380.014 51.7749 380.014 52.2185C380.014 52.67 379.933 53.0671 379.771 53.4098C379.609 53.7498 379.375 54.0154 379.07 54.2067C378.764 54.3979 378.399 54.4936 377.974 54.4936ZM377.974 53.9318C378.452 53.9318 378.808 53.7737 379.042 53.4576C379.276 53.1389 379.393 52.7258 379.393 52.2185C379.393 51.6979 379.274 51.2835 379.038 50.9754C378.804 50.6672 378.45 50.5132 377.974 50.5132C377.653 50.5132 377.387 50.5862 377.177 50.7323C376.97 50.8757 376.815 51.0763 376.711 51.3339C376.61 51.5889 376.56 51.8838 376.56 52.2185C376.56 52.7364 376.679 53.1521 376.918 53.4656C377.157 53.7764 377.509 53.9318 377.974 53.9318ZM384.001 54.374V52.1786C384.001 51.9396 383.978 51.7204 383.933 51.5212C383.888 51.3193 383.815 51.144 383.714 50.9953C383.616 50.8439 383.487 50.727 383.328 50.6446C383.171 50.5623 382.98 50.5211 382.754 50.5211C382.547 50.5211 382.363 50.557 382.204 50.6287C382.047 50.7004 381.914 50.804 381.805 50.9395C381.699 51.0723 381.618 51.2343 381.562 51.4256C381.507 51.6168 381.479 51.8346 381.479 52.079L381.064 51.9874C381.064 51.5464 381.141 51.1759 381.295 50.8757C381.45 50.5756 381.662 50.3485 381.933 50.1944C382.204 50.0404 382.515 49.9633 382.865 49.9633C383.123 49.9633 383.347 50.0032 383.539 50.0829C383.733 50.1625 383.896 50.2701 384.029 50.4056C384.164 50.5411 384.273 50.6964 384.355 50.8718C384.438 51.0444 384.498 51.229 384.535 51.4256C384.572 51.6195 384.591 51.8134 384.591 52.0073V54.374H384.001ZM380.889 54.374V50.0709H381.419V51.1307H381.479V54.374H380.889Z" fill="#757877"/>
<path d="M408.619 54.374L410.596 48.6365H411.373L413.349 54.374H412.739L410.863 48.9632H411.094L409.229 54.374H408.619ZM409.5 52.9835V52.4336H412.464V52.9835H409.5ZM416.001 54.4936C415.605 54.4936 415.27 54.3939 414.997 54.1947C414.723 53.9929 414.516 53.7206 414.375 53.3779C414.234 53.0326 414.164 52.6461 414.164 52.2185C414.164 51.7829 414.234 51.395 414.375 51.055C414.519 50.7124 414.728 50.4428 415.005 50.2462C415.281 50.0496 415.621 49.9514 416.025 49.9514C416.418 49.9514 416.755 50.051 417.037 50.2502C417.318 50.4494 417.533 50.7204 417.682 51.063C417.834 51.4057 417.909 51.7908 417.909 52.2185C417.909 52.6488 417.834 53.0353 417.682 53.3779C417.531 53.7206 417.313 53.9929 417.029 54.1947C416.744 54.3939 416.402 54.4936 416.001 54.4936ZM414.064 54.374V48.6365H414.654V51.1347H414.59V54.374H414.064ZM415.941 53.9477C416.241 53.9477 416.491 53.872 416.69 53.7206C416.889 53.5692 417.038 53.3633 417.136 53.103C417.237 52.84 417.288 52.5452 417.288 52.2185C417.288 51.8944 417.239 51.6022 417.14 51.3419C417.042 51.0816 416.892 50.8757 416.69 50.7243C416.491 50.5729 416.237 50.4972 415.929 50.4972C415.629 50.4972 415.379 50.5703 415.18 50.7164C414.983 50.8625 414.836 51.0657 414.738 51.326C414.639 51.5836 414.59 51.8811 414.59 52.2185C414.59 52.5505 414.639 52.848 414.738 53.111C414.836 53.3713 414.985 53.5758 415.184 53.7246C415.383 53.8733 415.635 53.9477 415.941 53.9477ZM420.581 54.4936C420.153 54.4936 419.788 54.3966 419.485 54.2027C419.183 54.0088 418.95 53.7405 418.788 53.3979C418.626 53.0552 418.545 52.6621 418.545 52.2185C418.545 51.7669 418.627 51.3711 418.792 51.0311C418.957 50.6911 419.191 50.4268 419.493 50.2382C419.799 50.047 420.161 49.9514 420.581 49.9514C421.011 49.9514 421.378 50.0483 421.681 50.2422C421.986 50.4335 422.219 50.7004 422.378 51.0431C422.54 51.3831 422.621 51.7749 422.621 52.2185C422.621 52.67 422.54 53.0671 422.378 53.4098C422.216 53.7498 421.982 54.0154 421.677 54.2067C421.371 54.3979 421.006 54.4936 420.581 54.4936ZM420.581 53.9318C421.059 53.9318 421.415 53.7737 421.649 53.4576C421.883 53.1389 422 52.7258 422 52.2185C422 51.6979 421.881 51.2835 421.645 50.9754C421.411 50.6672 421.057 50.5132 420.581 50.5132C420.26 50.5132 419.994 50.5862 419.784 50.7323C419.577 50.8757 419.422 51.0763 419.318 51.3339C419.217 51.5889 419.167 51.8838 419.167 52.2185C419.167 52.7364 419.286 53.1521 419.525 53.4656C419.764 53.7764 420.116 53.9318 420.581 53.9318ZM425.146 54.4816C424.888 54.4816 424.662 54.4418 424.468 54.3621C424.277 54.2824 424.114 54.1748 423.978 54.0393C423.845 53.9039 423.738 53.7498 423.655 53.5771C423.573 53.4018 423.513 53.2172 423.476 53.0233C423.439 52.8268 423.42 52.6315 423.42 52.4376V50.0709H424.01V52.2663C424.01 52.5027 424.033 52.7218 424.078 52.9237C424.123 53.1256 424.195 53.3022 424.293 53.4536C424.394 53.6024 424.523 53.7179 424.679 53.8003C424.839 53.8826 425.031 53.9238 425.257 53.9238C425.464 53.9238 425.646 53.8879 425.803 53.8162C425.962 53.7445 426.095 53.6422 426.201 53.5094C426.31 53.3739 426.393 53.2106 426.448 53.0193C426.504 52.8254 426.532 52.6076 426.532 52.3659L426.947 52.4575C426.947 52.8985 426.869 53.269 426.715 53.5692C426.561 53.8693 426.349 54.0964 426.078 54.2505C425.807 54.4046 425.496 54.4816 425.146 54.4816ZM426.592 54.374V53.3142H426.532V50.0709H427.118V54.374H426.592ZM430.574 54.374C430.333 54.4245 430.094 54.4444 429.857 54.4338C429.623 54.4232 429.414 54.3727 429.228 54.2824C429.044 54.1921 428.905 54.0513 428.809 53.86C428.732 53.7007 428.69 53.54 428.682 53.3779C428.676 53.2132 428.674 53.026 428.674 52.8161V48.8756H429.255V52.7922C429.255 52.9729 429.257 53.1243 429.259 53.2464C429.265 53.366 429.293 53.4722 429.343 53.5652C429.439 53.7432 429.59 53.8494 429.797 53.8839C430.007 53.9185 430.266 53.9105 430.574 53.86V54.374ZM427.753 50.5729V50.0709H430.574V50.5729H427.753ZM434.663 54.4816C434.405 54.4816 434.18 54.4418 433.986 54.3621C433.794 54.2824 433.631 54.1748 433.496 54.0393C433.363 53.9039 433.255 53.7498 433.173 53.5771C433.09 53.4018 433.031 53.2172 432.994 53.0233C432.956 52.8268 432.938 52.6315 432.938 52.4376V50.0709H433.527V52.2663C433.527 52.5027 433.55 52.7218 433.595 52.9237C433.64 53.1256 433.712 53.3022 433.81 53.4536C433.911 53.6024 434.04 53.7179 434.197 53.8003C434.356 53.8826 434.549 53.9238 434.775 53.9238C434.982 53.9238 435.164 53.8879 435.32 53.8162C435.48 53.7445 435.613 53.6422 435.719 53.5094C435.828 53.3739 435.91 53.2106 435.966 53.0193C436.022 52.8254 436.05 52.6076 436.05 52.3659L436.464 52.4575C436.464 52.8985 436.387 53.269 436.233 53.5692C436.079 53.8693 435.866 54.0964 435.595 54.2505C435.324 54.4046 435.014 54.4816 434.663 54.4816ZM436.109 54.374V53.3142H436.05V50.0709H436.635V54.374H436.109ZM439.355 54.4896C438.85 54.4896 438.434 54.3807 438.107 54.1629C437.783 53.945 437.584 53.6422 437.51 53.2544L438.107 53.1548C438.171 53.3992 438.316 53.5944 438.542 53.7405C438.77 53.8839 439.052 53.9557 439.386 53.9557C439.713 53.9557 439.971 53.8879 440.159 53.7525C440.348 53.6143 440.442 53.4271 440.442 53.1907C440.442 53.0579 440.412 52.9503 440.351 52.8679C440.292 52.7829 440.171 52.7046 439.988 52.6329C439.805 52.5611 439.531 52.4761 439.167 52.3779C438.777 52.2716 438.471 52.1654 438.251 52.0591C438.03 51.9529 437.874 51.8307 437.781 51.6925C437.688 51.5518 437.641 51.3804 437.641 51.1786C437.641 50.9342 437.71 50.7204 437.848 50.5371C437.987 50.3511 438.178 50.2077 438.422 50.1068C438.667 50.0032 438.951 49.9514 439.275 49.9514C439.599 49.9514 439.888 50.0045 440.143 50.1107C440.401 50.2143 440.608 50.3604 440.765 50.549C440.922 50.7376 441.015 50.9568 441.044 51.2064L440.446 51.314C440.406 51.0617 440.28 50.8625 440.068 50.7164C439.858 50.5676 439.591 50.4906 439.267 50.4853C438.961 50.4773 438.713 50.5357 438.522 50.6606C438.331 50.7828 438.235 50.9461 438.235 51.1507C438.235 51.2649 438.269 51.3632 438.339 51.4455C438.408 51.5252 438.532 51.6009 438.713 51.6726C438.896 51.7443 439.157 51.8227 439.494 51.9077C439.89 52.0086 440.201 52.1149 440.426 52.2264C440.652 52.338 440.813 52.4695 440.908 52.6209C441.004 52.7723 441.052 52.9596 441.052 53.1827C441.052 53.5891 440.9 53.9092 440.598 54.1429C440.298 54.374 439.883 54.4896 439.355 54.4896Z" fill="#757877"/>
<rect x="464.37" y="41.3936" width="46.9375" height="19.9609" rx="0.996094" fill="#458ABF"/>
<path d="M474.889 54.4936C474.488 54.4936 474.127 54.4271 473.805 54.2943C473.486 54.1589 473.222 53.9676 473.012 53.7206C472.805 53.4736 472.67 53.18 472.606 52.84L473.203 52.7404C473.299 53.1123 473.501 53.4045 473.809 53.617C474.117 53.8268 474.485 53.9318 474.913 53.9318C475.194 53.9318 475.447 53.8879 475.67 53.8003C475.893 53.71 476.068 53.5825 476.196 53.4178C476.323 53.2531 476.387 53.0579 476.387 52.8321C476.387 52.6833 476.36 52.5571 476.307 52.4536C476.254 52.3473 476.184 52.2596 476.096 52.1906C476.008 52.1215 475.913 52.0644 475.809 52.0193C475.706 51.9714 475.605 51.9329 475.506 51.9037L474.052 51.4694C473.877 51.4189 473.715 51.3552 473.566 51.2782C473.417 51.1985 473.287 51.1042 473.176 50.9953C473.067 50.8837 472.982 50.7536 472.921 50.6048C472.859 50.4561 472.829 50.2861 472.829 50.0948C472.829 49.7707 472.914 49.4905 473.084 49.2541C473.254 49.0177 473.486 48.8357 473.781 48.7082C474.076 48.5807 474.412 48.5183 474.789 48.521C475.172 48.521 475.513 48.5887 475.813 48.7242C476.116 48.8596 476.366 49.0536 476.562 49.3059C476.759 49.5556 476.889 49.8518 476.953 50.1944L476.339 50.306C476.299 50.0563 476.208 49.8398 476.064 49.6565C475.921 49.4732 475.738 49.3325 475.514 49.2342C475.294 49.1332 475.051 49.0814 474.785 49.0788C474.528 49.0788 474.298 49.1226 474.096 49.2103C473.897 49.2953 473.739 49.4121 473.622 49.5609C473.505 49.7096 473.447 49.8796 473.447 50.0709C473.447 50.2648 473.5 50.4202 473.606 50.5371C473.715 50.6539 473.848 50.7456 474.004 50.812C474.164 50.8784 474.318 50.9329 474.467 50.9754L475.59 51.3061C475.707 51.3379 475.844 51.3844 476.001 51.4455C476.16 51.5039 476.314 51.5889 476.463 51.7005C476.614 51.8094 476.739 51.9529 476.837 52.1308C476.936 52.3088 476.985 52.5346 476.985 52.8082C476.985 53.0738 476.932 53.3115 476.825 53.5214C476.722 53.7312 476.574 53.9079 476.383 54.0513C476.194 54.1947 475.973 54.3036 475.718 54.378C475.465 54.455 475.189 54.4936 474.889 54.4936ZM477.887 49.2541V48.5967H478.473V49.2541H477.887ZM477.887 54.374V50.0709H478.473V54.374H477.887ZM481.376 56.4061C481.156 56.4061 480.938 56.3729 480.723 56.3064C480.51 56.2427 480.314 56.1404 480.133 55.9996C479.953 55.8615 479.801 55.6809 479.679 55.4578L480.209 55.1629C480.328 55.402 480.496 55.5733 480.711 55.6769C480.929 55.7832 481.151 55.8363 481.376 55.8363C481.687 55.8363 481.938 55.7779 482.129 55.661C482.323 55.5468 482.464 55.3768 482.552 55.151C482.639 54.9252 482.682 54.6436 482.679 54.3063V53.1588H482.747V50.0709H483.269V54.3143C483.269 54.4364 483.265 54.5533 483.257 54.6649C483.252 54.7791 483.24 54.8907 483.221 54.9996C483.171 55.321 483.066 55.5853 482.906 55.7925C482.75 55.9996 482.542 56.1537 482.285 56.2546C482.03 56.3556 481.727 56.4061 481.376 56.4061ZM481.336 54.4936C480.935 54.4936 480.593 54.3939 480.308 54.1947C480.024 53.9929 479.806 53.7206 479.655 53.3779C479.504 53.0353 479.428 52.6488 479.428 52.2185C479.428 51.7908 479.502 51.4057 479.651 51.063C479.802 50.7204 480.019 50.4494 480.301 50.2502C480.582 50.051 480.919 49.9514 481.313 49.9514C481.716 49.9514 482.056 50.0496 482.333 50.2462C482.609 50.4428 482.817 50.7124 482.958 51.055C483.102 51.395 483.173 51.7829 483.173 52.2185C483.173 52.6461 483.103 53.0326 482.962 53.3779C482.821 53.7206 482.614 53.9929 482.341 54.1947C482.067 54.3939 481.732 54.4936 481.336 54.4936ZM481.396 53.9477C481.702 53.9477 481.954 53.8733 482.153 53.7246C482.352 53.5758 482.501 53.3713 482.6 53.111C482.698 52.848 482.747 52.5505 482.747 52.2185C482.747 51.8811 482.698 51.5836 482.6 51.326C482.501 51.0657 482.352 50.8625 482.153 50.7164C481.957 50.5703 481.708 50.4972 481.408 50.4972C481.1 50.4972 480.845 50.5729 480.643 50.7243C480.441 50.8757 480.291 51.0816 480.193 51.3419C480.097 51.6022 480.05 51.8944 480.05 52.2185C480.05 52.5452 480.099 52.84 480.197 53.103C480.298 53.3633 480.448 53.5692 480.647 53.7206C480.846 53.872 481.096 53.9477 481.396 53.9477ZM487.491 54.374V52.1786C487.491 51.9396 487.468 51.7204 487.423 51.5212C487.378 51.3193 487.305 51.144 487.204 50.9953C487.106 50.8439 486.977 50.727 486.817 50.6446C486.661 50.5623 486.469 50.5211 486.244 50.5211C486.036 50.5211 485.853 50.557 485.694 50.6287C485.537 50.7004 485.404 50.804 485.295 50.9395C485.189 51.0723 485.108 51.2343 485.052 51.4256C484.996 51.6168 484.969 51.8346 484.969 52.079L484.554 51.9874C484.554 51.5464 484.631 51.1759 484.785 50.8757C484.939 50.5756 485.152 50.3485 485.423 50.1944C485.694 50.0404 486.005 49.9633 486.355 49.9633C486.613 49.9633 486.837 50.0032 487.029 50.0829C487.222 50.1625 487.386 50.2701 487.519 50.4056C487.654 50.5411 487.763 50.6964 487.845 50.8718C487.928 51.0444 487.987 51.229 488.025 51.4256C488.062 51.6195 488.08 51.8134 488.08 52.0073V54.374H487.491ZM484.379 54.374V50.0709H484.909V51.1307H484.969V54.374H484.379ZM492.507 54.4936C492.079 54.4936 491.714 54.3966 491.411 54.2027C491.108 54.0088 490.876 53.7405 490.714 53.3979C490.552 53.0552 490.471 52.6621 490.471 52.2185C490.471 51.7669 490.553 51.3711 490.718 51.0311C490.882 50.6911 491.116 50.4268 491.419 50.2382C491.724 50.047 492.087 49.9514 492.507 49.9514C492.937 49.9514 493.303 50.0483 493.606 50.2422C493.912 50.4335 494.144 50.7004 494.304 51.0431C494.466 51.3831 494.547 51.7749 494.547 52.2185C494.547 52.67 494.466 53.0671 494.304 53.4098C494.142 53.7498 493.908 54.0154 493.602 54.2067C493.297 54.3979 492.932 54.4936 492.507 54.4936ZM492.507 53.9318C492.985 53.9318 493.341 53.7737 493.574 53.4576C493.808 53.1389 493.925 52.7258 493.925 52.2185C493.925 51.6979 493.807 51.2835 493.57 50.9754C493.337 50.6672 492.982 50.5132 492.507 50.5132C492.185 50.5132 491.92 50.5862 491.71 50.7323C491.503 50.8757 491.347 51.0763 491.244 51.3339C491.143 51.5889 491.092 51.8838 491.092 52.2185C491.092 52.7364 491.212 53.1521 491.451 53.4656C491.69 53.7764 492.042 53.9318 492.507 53.9318ZM497.071 54.4816C496.813 54.4816 496.588 54.4418 496.394 54.3621C496.202 54.2824 496.039 54.1748 495.904 54.0393C495.771 53.9039 495.663 53.7498 495.581 53.5771C495.499 53.4018 495.439 53.2172 495.402 53.0233C495.364 52.8268 495.346 52.6315 495.346 52.4376V50.0709H495.936V52.2663C495.936 52.5027 495.958 52.7218 496.003 52.9237C496.048 53.1256 496.12 53.3022 496.218 53.4536C496.319 53.6024 496.448 53.7179 496.605 53.8003C496.764 53.8826 496.957 53.9238 497.183 53.9238C497.39 53.9238 497.572 53.8879 497.728 53.8162C497.888 53.7445 498.021 53.6422 498.127 53.5094C498.236 53.3739 498.318 53.2106 498.374 53.0193C498.43 52.8254 498.458 52.6076 498.458 52.3659L498.872 52.4575C498.872 52.8985 498.795 53.269 498.641 53.5692C498.487 53.8693 498.274 54.0964 498.003 54.2505C497.732 54.4046 497.422 54.4816 497.071 54.4816ZM498.517 54.374V53.3142H498.458V50.0709H499.043V54.374H498.517ZM502.5 54.374C502.258 54.4245 502.019 54.4444 501.783 54.4338C501.549 54.4232 501.339 54.3727 501.153 54.2824C500.97 54.1921 500.83 54.0513 500.735 53.86C500.658 53.7007 500.615 53.54 500.607 53.3779C500.602 53.2132 500.599 53.026 500.599 52.8161V48.8756H501.181V52.7922C501.181 52.9729 501.182 53.1243 501.185 53.2464C501.19 53.366 501.218 53.4722 501.269 53.5652C501.364 53.7432 501.516 53.8494 501.723 53.8839C501.933 53.9185 502.192 53.9105 502.5 53.86V54.374ZM499.679 50.5729V50.0709H502.5V50.5729H499.679Z" fill="white"/>
</g>
<defs>
<filter id="filter0_d_6795_1564" x="-222.769" y="0.395311" width="814.725" height="607.538" filterUnits="userSpaceOnUse" color-interpolation-filters="sRGB">
<feFlood flood-opacity="0" result="BackgroundImageFix"/>
<feColorMatrix in="SourceAlpha" type="matrix" values="0 0 0 0 0 0 0 0 0 0 0 0 0 0 0 0 0 0 127 0" result="hardAlpha"/>
<feOffset dy="28.6875"/>
<feGaussianBlur stdDeviation="24.3844"/>
<feComposite in2="hardAlpha" operator="out"/>
<feColorMatrix type="matrix" values="0 0 0 0 0.615686 0 0 0 0 0.596078 0 0 0 0 0.596078 0 0 0 0.25 0"/>
<feBlend mode="normal" in2="BackgroundImageFix" result="effect1_dropShadow_6795_1564"/>
<feBlend mode="normal" in="SourceGraphic" in2="effect1_dropShadow_6795_1564" result="shape"/>
</filter>
</defs>
</svg>
