<svg width="174" height="38" viewBox="0 0 174 38" fill="none" xmlns="http://www.w3.org/2000/svg">
<path d="M30.388 37.0667C30.1498 37.0666 29.9147 37.0126 29.7003 36.9087C29.4859 36.8048 29.2977 36.6538 29.1498 36.4668C29.0019 36.2798 28.8981 36.0618 28.8461 35.8289C28.7942 35.5961 28.7955 35.3546 28.8499 35.1223C28.8698 35.0351 30.8646 26.1484 25.6653 22.5339C14.2998 16.3618 3.06867 36.0621 2.95667 36.2628C2.75072 36.6284 2.40819 36.8971 2.00445 37.0097C1.6007 37.1224 1.16881 37.0698 0.803775 36.8635C0.438742 36.6572 0.170473 36.3142 0.0579845 35.9098C-0.0545041 35.5055 -0.00199779 35.0729 0.203952 34.7073C0.328397 34.4804 3.37605 29.0986 8.10619 24.5269C14.6943 18.1541 21.3172 16.5189 27.2545 19.7906C27.2968 19.8143 27.3391 19.8405 27.3789 19.8679C34.4573 24.6864 32.0257 35.394 31.9236 35.8477C31.8419 36.1943 31.6459 36.5031 31.3672 36.7243C31.0885 36.9455 30.7436 37.0661 30.388 37.0667Z" fill="url(#paint0_linear_7160_914)"/>
<path d="M44.4195 28.8781C44.2263 28.8782 44.0347 28.8423 43.8546 28.7721C42.4558 28.2349 30.1445 23.3491 28.7084 17.3154C27.1516 10.7769 32.5239 2.04351 32.7479 1.67832C32.9692 1.32214 33.3227 1.0686 33.7306 0.973465C34.1386 0.878332 34.5675 0.949403 34.9232 1.17104C35.2788 1.39268 35.5319 1.74674 35.6269 2.15532C35.7219 2.5639 35.6509 2.99354 35.4297 3.34972C35.3774 3.43322 30.5303 11.3265 31.7809 16.585C32.5749 19.9191 40.3017 24.0197 44.9858 25.8219C45.3304 25.9542 45.6179 26.2032 45.7984 26.5257C45.9788 26.8482 46.0408 27.2238 45.9735 27.5872C45.9062 27.9507 45.7139 28.2791 45.43 28.5154C45.1462 28.7516 44.7886 28.8808 44.4195 28.8806V28.8781Z" fill="url(#paint1_linear_7160_914)"/>
<path d="M17.7146 16.362C16.5045 16.369 15.2989 16.2126 14.1305 15.8971C13.9319 15.8373 13.747 15.7389 13.5863 15.6075C13.4257 15.4761 13.2924 15.3143 13.1942 15.1313C13.096 14.9483 13.0347 14.7477 13.0138 14.541C12.993 14.3343 13.013 14.1255 13.0728 13.9266C13.1325 13.7277 13.2308 13.5424 13.362 13.3815C13.4932 13.2206 13.6547 13.0872 13.8374 12.9888C14.0201 12.8904 14.2204 12.829 14.4268 12.8082C14.6331 12.7873 14.8416 12.8074 15.0402 12.8672C15.0801 12.8796 19.4829 14.1323 22.6475 11.6507C24.8813 9.92946 24.8228 6.86087 24.8216 6.82971C24.8064 6.4104 24.9582 6.00222 25.2435 5.69496C25.5288 5.38771 25.9243 5.20655 26.3429 5.19135C26.7616 5.17614 27.1691 5.32813 27.4759 5.61388C27.7827 5.89963 27.9636 6.29573 27.9787 6.71505C27.9862 6.90574 28.1194 11.4251 24.5839 14.1497C22.3339 15.9158 19.7517 16.362 17.7146 16.362Z" fill="url(#paint2_linear_7160_914)"/>
<path d="M57.6805 22.0628C58.076 22.4694 58.5506 22.7908 59.075 23.0071C59.5994 23.2234 60.1625 23.3301 60.7297 23.3206C61.6897 23.3194 62.6233 23.0065 63.3901 22.4289C64.2326 21.8052 64.9493 21.0275 65.5022 20.1368C66.3405 18.7454 67.2824 17.4191 68.3198 16.1691V12.4868H70.6201V14.1273C71.7775 12.9965 73.3162 12.3397 74.9334 12.2861C77.0807 12.2089 78.6577 12.8226 79.6645 14.1273C80.6712 15.4319 81.1746 17.0807 81.1746 19.0735V25.5961H78.8742V19.0735C78.8742 15.947 77.5641 14.4417 74.9437 14.5576C73.5453 14.6155 72.2758 15.2623 71.1353 16.498C69.8745 17.893 68.7431 19.3997 67.755 20.9995C67.5261 21.4008 67.3633 21.6691 67.2668 21.8042C66.5346 22.9355 65.5829 23.9084 64.4679 24.6652C63.3553 25.3821 62.0528 25.7476 60.7297 25.714C59.5424 25.7255 58.3744 25.4129 57.3515 24.81C56.3391 24.2196 55.4968 23.3772 54.9063 22.3648C54.3053 21.3516 53.992 20.1936 54.0003 19.0156C53.9898 17.8275 54.303 16.6589 54.9063 15.6354C55.4963 14.621 56.3387 13.7765 57.3515 13.184C58.3743 12.5804 59.5422 12.2671 60.7297 12.2779C62.2114 12.2464 63.6535 12.7577 64.7844 13.7156C65.3195 14.1555 66.1049 15.1334 67.1406 16.649L57.6805 22.0628ZM63.8638 16.0532C63.4657 15.6204 62.9808 15.2764 62.4408 15.0436C61.9008 14.8109 61.3177 14.6946 60.7297 14.7024C60.1625 14.6994 59.6002 14.8089 59.0756 15.0246C58.5509 15.2402 58.0742 15.5578 57.6731 15.959C57.272 16.3601 56.9544 16.8368 56.7387 17.3614C56.523 17.8861 56.4135 18.4483 56.4165 19.0156C56.416 19.413 56.4639 19.809 56.5592 20.1948L63.8638 16.0532ZM70.6201 18.2109V25.5134H68.3198V21.6884C68.7238 20.8843 69.4906 19.7252 70.6201 18.2109Z" fill="white"/>
<path d="M85.6012 19.4168V25.5133H83.3008V7.59839H85.6012V17.9419L91.4432 12.5157H94.6352L88.0153 18.699L95.3468 25.5133H92.1569L85.6012 19.4168Z" fill="white"/>
<path d="M102.821 12.2426C104.853 12.2426 106.314 12.6563 107.205 13.4838C108.096 14.3112 108.542 15.6531 108.543 17.5094V25.2733H106.247V23.6617L106.189 23.7197C105.761 24.1946 105.267 24.6062 104.722 24.9423C104.223 25.2388 103.505 25.416 102.567 25.4739C100.912 25.5898 99.5555 25.3022 98.4978 24.6113C97.44 23.9203 96.8883 22.886 96.8428 21.5082C96.8056 20.1084 97.2945 19.001 98.3095 18.1859C99.3245 17.3708 100.734 16.9633 102.538 16.9633H106.218C106.218 15.9869 105.935 15.3208 105.37 14.965C104.805 14.6091 103.994 14.4292 102.939 14.425H98.5681V12.2426H102.821ZM102.534 19.1148C101.516 19.1148 100.725 19.3016 100.161 19.6754C99.8984 19.8316 99.68 20.0524 99.5265 20.3166C99.373 20.5809 99.2895 20.88 99.2839 21.1855C99.2452 21.9896 99.5521 22.5646 100.204 22.9108C100.857 23.257 101.69 23.3528 102.705 23.1984C103.339 23.1103 103.941 22.8681 104.46 22.4929C105.131 21.9646 105.73 21.3512 106.243 20.6683V19.1148H102.534Z" fill="white"/>
<path d="M112.114 30.4016L114.406 25.5132L108.28 12.4805H110.848L115.622 22.977L120.568 12.4805H123.127L117.289 24.8513L114.673 30.4016H112.114Z" fill="white"/>
<path d="M126.291 14.6734H124.129V12.4868H126.287V9.98572H128.587V12.4868H132.238V14.6734H128.62V20.6312C128.62 21.6463 128.83 22.3558 129.251 22.7599C129.672 23.164 130.352 23.3653 131.293 23.364H132.242V25.5133H131.415C128.003 25.5133 126.297 23.8839 126.297 20.625L126.291 14.6734Z" fill="white"/>
<path d="M136.613 22.0627C137.008 22.4692 137.483 22.7905 138.007 23.0068C138.531 23.2231 139.094 23.3298 139.66 23.3204C140.436 23.3194 141.197 23.1109 141.864 22.7165C142.532 22.3222 143.081 21.7565 143.457 21.078L145.498 22.3709C144.908 23.3828 144.067 24.2251 143.055 24.8161C142.033 25.4151 140.87 25.7321 139.685 25.7346C138.5 25.7371 137.336 25.4252 136.311 24.8306C135.299 24.2401 134.456 23.3978 133.866 22.3854C133.273 21.3607 132.96 20.1975 132.96 19.0134C132.96 17.8293 133.273 16.6661 133.866 15.6414C134.451 14.6255 135.295 13.7826 136.311 13.1983C137.328 12.6069 138.484 12.299 139.66 12.3067C141.238 12.2949 142.765 12.8683 143.945 13.9161C144.354 14.2489 144.722 14.6303 145.039 15.0519C145.411 15.5705 145.746 16.1137 146.044 16.6779L136.613 22.0627ZM142.795 16.0241C142.392 15.5986 141.906 15.2614 141.366 15.0338C140.827 14.8062 140.246 14.6933 139.66 14.7022C138.517 14.7039 137.421 15.1588 136.612 15.9674C135.804 16.7759 135.349 17.872 135.347 19.0155C135.345 19.4055 135.404 19.7935 135.521 20.1657L142.795 16.0241Z" fill="white"/>
<path d="M171.465 19.1004C171.465 15.9767 170.152 14.4721 167.524 14.5865C166.126 14.6445 164.857 15.2913 163.716 16.527C162.45 17.9287 161.317 19.4454 160.332 21.0574C160.103 21.4408 159.94 21.6994 159.843 21.8332C158.965 23.1364 158.093 24.1149 157.229 24.7686C156.364 25.4224 155.233 25.7478 153.836 25.7451C152.649 25.7555 151.481 25.443 150.458 24.8411C149.445 24.2506 148.603 23.4082 148.013 22.3959C147.419 21.3738 147.106 20.213 147.106 19.0311C147.106 17.8493 147.419 16.6884 148.013 15.6664C148.604 14.655 149.446 13.8135 150.458 13.2233C151.482 12.6274 152.646 12.3147 153.831 12.3172C155.015 12.3198 156.178 12.6375 157.2 13.2377C158.211 13.828 159.054 14.6695 159.645 15.6809L157.603 16.9759C157.239 16.3053 156.703 15.744 156.049 15.3499C155.48 15.0087 154.839 14.8037 154.176 14.7511C153.514 14.6985 152.849 14.7995 152.232 15.0464C151.616 15.2933 151.064 15.6794 150.622 16.1744C150.179 16.6695 149.856 17.2602 149.679 17.9004C149.502 18.5406 149.476 19.2131 149.602 19.8653C149.727 20.5175 150.002 21.1318 150.405 21.6603C150.807 22.1887 151.326 22.6171 151.921 22.9119C152.516 23.2067 153.172 23.36 153.836 23.3599C154.689 23.3886 155.521 23.093 156.165 22.5324C156.9 21.8327 157.536 21.0365 158.056 20.1658C158.902 18.7881 159.844 17.4713 160.874 16.2249V7.62744H163.203V14.1562C164.36 13.0255 165.899 12.3687 167.516 12.3151C169.663 12.2379 171.241 12.8585 172.247 14.1769C173.254 15.4954 173.757 17.1386 173.757 19.1066V25.6354H171.465V19.1004ZM163.211 18.2378V25.5423H160.882V21.7173C161.304 20.9133 162.08 19.7534 163.211 18.2378Z" fill="white"/>
<defs>
<linearGradient id="paint0_linear_7160_914" x1="3.42956" y1="24.7412" x2="39.4148" y2="36.5039" gradientUnits="userSpaceOnUse">
<stop offset="0.195" stop-color="#6A6EFF"/>
<stop offset="0.51" stop-color="#2BC1CC"/>
<stop offset="0.61" stop-color="#25CAAE"/>
<stop offset="0.71" stop-color="#1DD58A"/>
<stop offset="0.8" stop-color="#14E25F"/>
<stop offset="0.89" stop-color="#0AF12F"/>
<stop offset="0.96" stop-color="#00FF00"/>
</linearGradient>
<linearGradient id="paint1_linear_7160_914" x1="33.955" y1="0.930496" x2="57.3519" y2="11.746" gradientUnits="userSpaceOnUse">
<stop stop-color="#6A6EFF"/>
<stop offset="0.51" stop-color="#2BC1CC"/>
<stop offset="0.61" stop-color="#25CAAE"/>
<stop offset="0.71" stop-color="#1DD58A"/>
<stop offset="0.8" stop-color="#14E25F"/>
<stop offset="0.89" stop-color="#0AF12F"/>
<stop offset="0.96" stop-color="#00FF00"/>
</linearGradient>
<linearGradient id="paint2_linear_7160_914" x1="14.7814" y1="8.70676" x2="33.8346" y2="14.9349" gradientUnits="userSpaceOnUse">
<stop stop-color="#36B1FF"/>
<stop offset="0.14" stop-color="#35B2FC"/>
<stop offset="0.27" stop-color="#33B5F1"/>
<stop offset="0.38" stop-color="#2FBBDF"/>
<stop offset="0.49" stop-color="#2AC2C6"/>
<stop offset="0.6" stop-color="#23CCA6"/>
<stop offset="0.71" stop-color="#1BD87E"/>
<stop offset="0.81" stop-color="#11E74F"/>
<stop offset="0.92" stop-color="#06F71A"/>
<stop offset="0.96" stop-color="#00FF00"/>
</linearGradient>
</defs>
</svg>
