<svg width="26" height="14" viewBox="0 0 26 14" fill="none" xmlns="http://www.w3.org/2000/svg">
<path d="M24.8308 10.1657C24.766 10.1657 24.7001 10.1585 24.6342 10.1434L17.2557 8.45015C16.7847 8.34208 16.4905 7.87258 16.5985 7.40158C16.7066 6.93065 17.1758 6.63658 17.6471 6.74446L25.0256 8.43771C25.4966 8.54577 25.7908 9.01527 25.6828 9.48627C25.5899 9.8914 25.2295 10.1657 24.8308 10.1657Z" fill="white"/>
<path d="M24.8288 10.1656C24.4296 10.1656 24.0691 9.89083 23.9765 9.48515L22.2877 2.08608C22.1802 1.61496 22.475 1.14583 22.9461 1.03827C23.4173 0.930645 23.8864 1.22552 23.9939 1.69665L25.6827 9.09571C25.7902 9.56684 25.4954 10.036 25.0243 10.1435C24.9588 10.1585 24.8932 10.1656 24.8288 10.1656Z" fill="white"/>
<path d="M1.1709 13.4744C0.687648 13.4744 0.295898 13.0826 0.295898 12.5994C0.295898 5.94188 5.69827 0.525635 12.3388 0.525635C15.5385 0.525635 18.552 1.77201 20.8243 4.0352L25.234 8.45732C25.5751 8.79957 25.5743 9.35357 25.2322 9.69482C24.8899 10.0359 24.336 10.0351 23.9947 9.69307L19.5872 5.27301C17.6474 3.34088 15.0724 2.27564 12.3388 2.27564C6.66327 2.27564 2.0459 6.90689 2.0459 12.5994C2.0459 13.0826 1.65415 13.4744 1.1709 13.4744Z" fill="white"/>
</svg>
