<svg width="26" height="14" viewBox="0 0 26 14" fill="none" xmlns="http://www.w3.org/2000/svg">
<path d="M1.16923 10.1657C1.23404 10.1657 1.29985 10.1585 1.36579 10.1434L8.74429 8.45015C9.21529 8.34208 9.50954 7.87258 9.40148 7.40158C9.29342 6.93065 8.82417 6.63658 8.35292 6.74446L0.974415 8.43771C0.503415 8.54577 0.209166 9.01527 0.317228 9.48627C0.410103 9.8914 0.77054 10.1657 1.16923 10.1657Z" fill="#888888"/>
<path d="M1.17119 10.1656C1.57038 10.1656 1.93088 9.89083 2.02351 9.48515L3.71226 2.08608C3.81976 1.61496 3.52501 1.14583 3.05388 1.03827C2.58269 0.930645 2.11357 1.22552 2.00607 1.69665L0.31732 9.09571C0.20982 9.56684 0.50457 10.036 0.975694 10.1435C1.04119 10.1585 1.10676 10.1656 1.17119 10.1656Z" fill="#888888"/>
<path d="M24.8291 13.4744C25.3124 13.4744 25.7041 13.0826 25.7041 12.5994C25.7041 5.94188 20.3017 0.525635 13.6612 0.525635C10.4615 0.525635 7.44798 1.77201 5.17567 4.0352L0.766041 8.45732C0.424852 8.79957 0.425667 9.35357 0.767792 9.69482C1.1101 10.0359 1.66404 10.0351 2.00529 9.69307L6.41279 5.27301C8.3526 3.34088 10.9276 2.27564 13.6612 2.27564C19.3367 2.27564 23.9541 6.90689 23.9541 12.5994C23.9541 13.0826 24.3459 13.4744 24.8291 13.4744Z" fill="#888888"/>
</svg>
