<svg width="647" height="573" viewBox="0 0 647 573" fill="none" xmlns="http://www.w3.org/2000/svg">
<g filter="url(#filter0_d_6795_1316)">
<g clip-path="url(#clip0_6795_1316)">
<rect x="21" y="17" width="605" height="531" rx="16" fill="white"/>
<rect x="21" y="17" width="605" height="531" rx="16" fill="url(#paint0_radial_6795_1316)"/>
<path d="M614.327 361.139C591.882 337.192 538.61 313.089 491.026 350.047C470.771 363.394 456.75 388.236 453.485 416.525C449.519 451.007 461.972 486.281 487.747 513.299C500.706 528.396 530.511 544.076 565.797 554.262C566.562 554.487 567.357 554.601 568.155 554.598C570.211 554.61 572.201 553.876 573.757 552.533C575.313 551.191 576.33 549.329 576.619 547.294C576.908 545.26 576.451 543.189 575.33 541.465C574.21 539.742 572.504 538.483 570.527 537.921C538.661 528.694 511.202 514.595 500.55 502.103C500.434 501.974 500.33 501.844 500.213 501.727C469.631 469.72 468.413 435.807 470.408 418.442C473.091 395.013 484.404 374.707 500.706 364.081C500.917 363.958 501.117 363.814 501.302 363.653C540.009 333.382 583.589 353.196 601.964 372.724C617.592 389.376 625.29 407.985 624.162 426.503C623.242 442.053 615.921 457.046 604.621 466.545C597.183 472.791 585.999 474.527 575.451 471.08C570.707 469.723 566.607 466.712 563.892 462.592C567.258 459.64 570.14 456.176 572.432 452.329C575.64 446.932 577.383 440.79 577.488 434.513C577.592 428.235 576.055 422.038 573.028 416.537L570.682 412.352C568.529 408.462 565.092 405.44 560.958 403.805C556.823 402.169 552.249 402.02 548.018 403.384L543.625 395.441C543.096 394.444 542.375 393.563 541.503 392.847C540.631 392.132 539.625 391.598 538.544 391.275C537.463 390.953 536.329 390.849 535.207 390.969C534.086 391.089 532.999 391.431 532.011 391.976C531.023 392.52 530.154 393.255 529.453 394.139C528.752 395.023 528.234 396.037 527.929 397.123C527.624 398.209 527.538 399.345 527.677 400.465C527.815 401.584 528.175 402.665 528.735 403.644L532.908 411.341L520.61 418.105L516.58 410.797C516.058 409.788 515.339 408.893 514.466 408.166C513.593 407.439 512.583 406.895 511.496 406.564C510.409 406.233 509.267 406.124 508.137 406.241C507.006 406.359 505.911 406.702 504.916 407.249C503.92 407.797 503.044 408.538 502.34 409.429C501.635 410.321 501.116 411.344 500.813 412.439C500.51 413.534 500.429 414.679 500.576 415.805C500.722 416.932 501.092 418.018 501.665 419L505.889 426.58C502.475 429.433 500.156 433.383 499.329 437.755C498.502 442.127 499.217 446.651 501.354 450.554L503.712 454.791C506.751 460.284 511.171 464.888 516.535 468.149C521.898 471.41 528.02 473.216 534.294 473.387H535.383C540.04 473.385 544.666 472.628 549.08 471.145C553.901 478.894 561.369 484.631 570.099 487.291C586.207 492.579 603.597 489.65 615.519 479.633C630.344 467.18 639.907 447.703 641.099 427.552C642.058 411.341 638.197 386.59 614.327 361.139ZM534.709 456.372C531.406 456.28 528.184 455.329 525.36 453.614C522.535 451.898 520.206 449.477 518.602 446.588L516.256 442.325C515.987 441.833 515.923 441.255 516.078 440.716C516.234 440.177 516.596 439.721 517.085 439.448L521.362 437.09L548.575 422.11L552.864 419.764C553.358 419.496 553.937 419.434 554.476 419.592C555.015 419.75 555.47 420.114 555.741 420.606L558.086 424.844C559.681 427.751 560.487 431.024 560.423 434.339C560.359 437.654 559.429 440.894 557.724 443.738C555.34 447.684 551.956 450.93 547.915 453.149C543.874 455.368 539.318 456.479 534.709 456.372Z" fill="#D3EDFF"/>
</g>
<rect x="21.5" y="17.5" width="604" height="530" rx="15.5" stroke="#E5E5E5"/>
</g>
<defs>
<filter id="filter0_d_6795_1316" x="0" y="0" width="647" height="573" filterUnits="userSpaceOnUse" color-interpolation-filters="sRGB">
<feFlood flood-opacity="0" result="BackgroundImageFix"/>
<feColorMatrix in="SourceAlpha" type="matrix" values="0 0 0 0 0 0 0 0 0 0 0 0 0 0 0 0 0 0 127 0" result="hardAlpha"/>
<feOffset dy="4"/>
<feGaussianBlur stdDeviation="10.5"/>
<feComposite in2="hardAlpha" operator="out"/>
<feColorMatrix type="matrix" values="0 0 0 0 0.57723 0 0 0 0 0.57723 0 0 0 0 0.57723 0 0 0 0.25 0"/>
<feBlend mode="normal" in2="BackgroundImageFix" result="effect1_dropShadow_6795_1316"/>
<feBlend mode="normal" in="SourceGraphic" in2="effect1_dropShadow_6795_1316" result="shape"/>
</filter>
<radialGradient id="paint0_radial_6795_1316" cx="0" cy="0" r="1" gradientUnits="userSpaceOnUse" gradientTransform="translate(32.7978 30.4042) rotate(45.2625) scale(871.535 1388.61)">
<stop offset="0.521822" stop-color="#EEF8FF" stop-opacity="0"/>
<stop offset="1" stop-color="#EEF8FF"/>
</radialGradient>
<clipPath id="clip0_6795_1316">
<rect x="21" y="17" width="605" height="531" rx="16" fill="white"/>
</clipPath>
</defs>
</svg>
