<svg width="1440" height="741" viewBox="0 0 1440 741" fill="none" xmlns="http://www.w3.org/2000/svg">
<g opacity="0.4">
<rect width="1440" height="753" transform="translate(0 -11.5234)" fill="white"/>
<g style="mix-blend-mode:luminosity">
<line x1="1464" y1="660.977" x2="-24" y2="660.977" stroke="#9FC5FF"/>
<line x1="1464" y1="684.977" x2="-24" y2="684.977" stroke="#9FC5FF"/>
<line x1="1464" y1="708.977" x2="-24" y2="708.977" stroke="#9FC5FF"/>
<line x1="1464" y1="732.977" x2="-24" y2="732.977" stroke="#9FC5FF"/>
<line x1="24.5" y1="636.477" x2="24.5" y2="1356.48" stroke="#9FC5FF"/>
<line x1="24.5" y1="636.477" x2="24.5" y2="1356.48" stroke="#9FC5FF"/>
<line x1="48.5" y1="636.477" x2="48.5" y2="1356.48" stroke="#9FC5FF"/>
<line x1="72.5" y1="636.477" x2="72.5" y2="1356.48" stroke="#9FC5FF"/>
<line x1="96.5" y1="636.477" x2="96.5" y2="1356.48" stroke="#9FC5FF"/>
<line x1="120.5" y1="636.477" x2="120.5" y2="1356.48" stroke="#9FC5FF"/>
<line x1="144.5" y1="636.477" x2="144.5" y2="1356.48" stroke="#9FC5FF"/>
<line x1="168.5" y1="636.477" x2="168.5" y2="1356.48" stroke="#9FC5FF"/>
<line x1="192.5" y1="636.477" x2="192.5" y2="1356.48" stroke="#9FC5FF"/>
<line x1="216.5" y1="636.477" x2="216.5" y2="1356.48" stroke="#9FC5FF"/>
<line x1="240.5" y1="636.477" x2="240.5" y2="1356.48" stroke="#9FC5FF"/>
<line x1="264.5" y1="636.477" x2="264.5" y2="1356.48" stroke="#9FC5FF"/>
<line x1="288.5" y1="636.477" x2="288.5" y2="1356.48" stroke="#9FC5FF"/>
<line x1="312.5" y1="636.477" x2="312.5" y2="1356.48" stroke="#9FC5FF"/>
<line x1="336.5" y1="636.477" x2="336.5" y2="1356.48" stroke="#9FC5FF"/>
<line x1="360.5" y1="636.477" x2="360.5" y2="1356.48" stroke="#9FC5FF"/>
<line x1="384.5" y1="636.477" x2="384.5" y2="1356.48" stroke="#9FC5FF"/>
<line x1="408.5" y1="636.477" x2="408.5" y2="1356.48" stroke="#9FC5FF"/>
<line x1="432.5" y1="636.477" x2="432.5" y2="1356.48" stroke="#9FC5FF"/>
<line x1="456.5" y1="636.477" x2="456.5" y2="1356.48" stroke="#9FC5FF"/>
<line x1="480.5" y1="636.477" x2="480.5" y2="1356.48" stroke="#9FC5FF"/>
<line x1="504.5" y1="636.477" x2="504.5" y2="1356.48" stroke="#9FC5FF"/>
<line x1="528.5" y1="636.477" x2="528.5" y2="1356.48" stroke="#9FC5FF"/>
<line x1="552.5" y1="636.477" x2="552.5" y2="1356.48" stroke="#9FC5FF"/>
<line x1="576.5" y1="636.477" x2="576.5" y2="1356.48" stroke="#9FC5FF"/>
<line x1="600.5" y1="636.477" x2="600.5" y2="1356.48" stroke="#9FC5FF"/>
<line x1="624.5" y1="636.477" x2="624.5" y2="1356.48" stroke="#9FC5FF"/>
<line x1="648.5" y1="636.477" x2="648.5" y2="1356.48" stroke="#9FC5FF"/>
<line x1="672.5" y1="636.477" x2="672.5" y2="1356.48" stroke="#9FC5FF"/>
<line x1="696.5" y1="636.477" x2="696.5" y2="1356.48" stroke="#9FC5FF"/>
<line x1="720.5" y1="636.477" x2="720.5" y2="1356.48" stroke="#9FC5FF"/>
<line x1="744.5" y1="636.477" x2="744.5" y2="1356.48" stroke="#9FC5FF"/>
<line x1="768.5" y1="636.477" x2="768.5" y2="1356.48" stroke="#9FC5FF"/>
<line x1="792.5" y1="636.477" x2="792.5" y2="1356.48" stroke="#9FC5FF"/>
<line x1="816.5" y1="636.477" x2="816.5" y2="1356.48" stroke="#9FC5FF"/>
<line x1="840.5" y1="636.477" x2="840.5" y2="1356.48" stroke="#9FC5FF"/>
<line x1="864.5" y1="636.477" x2="864.5" y2="1356.48" stroke="#9FC5FF"/>
<line x1="888.5" y1="636.477" x2="888.5" y2="1356.48" stroke="#9FC5FF"/>
<line x1="912.5" y1="636.477" x2="912.5" y2="1356.48" stroke="#9FC5FF"/>
<line x1="936.5" y1="636.477" x2="936.5" y2="1356.48" stroke="#9FC5FF"/>
<line x1="960.5" y1="636.477" x2="960.5" y2="1356.48" stroke="#9FC5FF"/>
<line x1="984.5" y1="636.477" x2="984.5" y2="1356.48" stroke="#9FC5FF"/>
<line x1="1008.5" y1="636.477" x2="1008.5" y2="1356.48" stroke="#9FC5FF"/>
<line x1="1032.5" y1="636.477" x2="1032.5" y2="1356.48" stroke="#9FC5FF"/>
<line x1="1056.5" y1="636.477" x2="1056.5" y2="1356.48" stroke="#9FC5FF"/>
<line x1="1080.5" y1="636.477" x2="1080.5" y2="1356.48" stroke="#9FC5FF"/>
<line x1="1104.5" y1="636.477" x2="1104.5" y2="1356.48" stroke="#9FC5FF"/>
<line x1="1128.5" y1="636.477" x2="1128.5" y2="1356.48" stroke="#9FC5FF"/>
<line x1="1152.5" y1="636.477" x2="1152.5" y2="1356.48" stroke="#9FC5FF"/>
<line x1="1176.5" y1="636.477" x2="1176.5" y2="1356.48" stroke="#9FC5FF"/>
<line x1="1200.5" y1="636.477" x2="1200.5" y2="1356.48" stroke="#9FC5FF"/>
<line x1="1224.5" y1="636.477" x2="1224.5" y2="1356.48" stroke="#9FC5FF"/>
<line x1="1248.5" y1="636.477" x2="1248.5" y2="1356.48" stroke="#9FC5FF"/>
<line x1="1272.5" y1="636.477" x2="1272.5" y2="1356.48" stroke="#9FC5FF"/>
<line x1="1296.5" y1="636.477" x2="1296.5" y2="1356.48" stroke="#9FC5FF"/>
<line x1="1320.5" y1="636.477" x2="1320.5" y2="1356.48" stroke="#9FC5FF"/>
<line x1="1344.5" y1="636.477" x2="1344.5" y2="1356.48" stroke="#9FC5FF"/>
<line x1="1368.5" y1="636.477" x2="1368.5" y2="1356.48" stroke="#9FC5FF"/>
<line x1="1392.5" y1="636.477" x2="1392.5" y2="1356.48" stroke="#9FC5FF"/>
<line x1="1416.5" y1="636.477" x2="1416.5" y2="1356.48" stroke="#9FC5FF"/>
<line x1="0.5" y1="-59.5234" x2="0.499969" y2="660.477" stroke="#9FC5FF"/>
<line x1="1464" y1="12.9766" x2="-24" y2="12.9766" stroke="#9FC5FF"/>
<line x1="1464" y1="36.9766" x2="-24" y2="36.9766" stroke="#9FC5FF"/>
<line x1="1464" y1="60.9766" x2="-24" y2="60.9766" stroke="#9FC5FF"/>
<line x1="1464" y1="84.9766" x2="-24" y2="84.9766" stroke="#9FC5FF"/>
<line x1="1464" y1="108.977" x2="-24" y2="108.977" stroke="#9FC5FF"/>
<line x1="1464" y1="132.977" x2="-24" y2="132.977" stroke="#9FC5FF"/>
<line x1="1464" y1="156.977" x2="-24" y2="156.977" stroke="#9FC5FF"/>
<line x1="1464" y1="180.977" x2="-24" y2="180.977" stroke="#9FC5FF"/>
<line x1="1464" y1="204.977" x2="-24" y2="204.977" stroke="#9FC5FF"/>
<line x1="1464" y1="228.977" x2="-24" y2="228.977" stroke="#9FC5FF"/>
<line x1="1464" y1="252.977" x2="-24" y2="252.977" stroke="#9FC5FF"/>
<line x1="1464" y1="276.977" x2="-24" y2="276.977" stroke="#9FC5FF"/>
<line x1="1464" y1="300.977" x2="-24" y2="300.977" stroke="#9FC5FF"/>
<line x1="1464" y1="324.977" x2="-24" y2="324.977" stroke="#9FC5FF"/>
<line x1="1464" y1="348.977" x2="-24" y2="348.977" stroke="#9FC5FF"/>
<line x1="1464" y1="372.977" x2="-24" y2="372.977" stroke="#9FC5FF"/>
<line x1="1464" y1="396.977" x2="-24" y2="396.977" stroke="#9FC5FF"/>
<line x1="1464" y1="420.977" x2="-24" y2="420.977" stroke="#9FC5FF"/>
<line x1="1464" y1="444.977" x2="-24" y2="444.977" stroke="#9FC5FF"/>
<line x1="1464" y1="468.977" x2="-24" y2="468.977" stroke="#9FC5FF"/>
<line x1="1464" y1="492.977" x2="-24" y2="492.977" stroke="#9FC5FF"/>
<line x1="1464" y1="516.977" x2="-24" y2="516.977" stroke="#9FC5FF"/>
<line x1="1464" y1="540.977" x2="-24" y2="540.977" stroke="#9FC5FF"/>
<line x1="1464" y1="564.977" x2="-24" y2="564.977" stroke="#9FC5FF"/>
<line x1="1464" y1="588.977" x2="-24" y2="588.977" stroke="#9FC5FF"/>
<line x1="1464" y1="612.977" x2="-24" y2="612.977" stroke="#9FC5FF"/>
<line x1="1464" y1="636.977" x2="-24" y2="636.977" stroke="#9FC5FF"/>
<line x1="24.5" y1="-59.5234" x2="24.5" y2="660.477" stroke="#9FC5FF"/>
<line x1="24.5" y1="-59.5234" x2="24.5" y2="660.477" stroke="#9FC5FF"/>
<line x1="48.5" y1="-59.5234" x2="48.5" y2="660.477" stroke="#9FC5FF"/>
<line x1="72.5" y1="-59.5234" x2="72.5" y2="660.477" stroke="#9FC5FF"/>
<line x1="96.5" y1="-59.5234" x2="96.5" y2="660.477" stroke="#9FC5FF"/>
<line x1="120.5" y1="-59.5234" x2="120.5" y2="660.477" stroke="#9FC5FF"/>
<line x1="144.5" y1="-59.5234" x2="144.5" y2="660.477" stroke="#9FC5FF"/>
<line x1="168.5" y1="-59.5234" x2="168.5" y2="660.477" stroke="#9FC5FF"/>
<line x1="192.5" y1="-59.5234" x2="192.5" y2="660.477" stroke="#9FC5FF"/>
<line x1="216.5" y1="-59.5234" x2="216.5" y2="660.477" stroke="#9FC5FF"/>
<line x1="240.5" y1="-59.5234" x2="240.5" y2="660.477" stroke="#9FC5FF"/>
<line x1="264.5" y1="-59.5234" x2="264.5" y2="660.477" stroke="#9FC5FF"/>
<line x1="288.5" y1="-59.5234" x2="288.5" y2="660.477" stroke="#9FC5FF"/>
<line x1="312.5" y1="-59.5234" x2="312.5" y2="660.477" stroke="#9FC5FF"/>
<line x1="336.5" y1="-59.5234" x2="336.5" y2="660.477" stroke="#9FC5FF"/>
<line x1="360.5" y1="-59.5234" x2="360.5" y2="660.477" stroke="#9FC5FF"/>
<line x1="384.5" y1="-59.5234" x2="384.5" y2="660.477" stroke="#9FC5FF"/>
<line x1="408.5" y1="-59.5234" x2="408.5" y2="660.477" stroke="#9FC5FF"/>
<line x1="432.5" y1="-59.5234" x2="432.5" y2="660.477" stroke="#9FC5FF"/>
<line x1="456.5" y1="-59.5234" x2="456.5" y2="660.477" stroke="#9FC5FF"/>
<line x1="480.5" y1="-59.5234" x2="480.5" y2="660.477" stroke="#9FC5FF"/>
<line x1="504.5" y1="-59.5234" x2="504.5" y2="660.477" stroke="#9FC5FF"/>
<line x1="528.5" y1="-59.5234" x2="528.5" y2="660.477" stroke="#9FC5FF"/>
<line x1="552.5" y1="-59.5234" x2="552.5" y2="660.477" stroke="#9FC5FF"/>
<line x1="576.5" y1="-59.5234" x2="576.5" y2="660.477" stroke="#9FC5FF"/>
<line x1="600.5" y1="-59.5234" x2="600.5" y2="660.477" stroke="#9FC5FF"/>
<line x1="624.5" y1="-59.5234" x2="624.5" y2="660.477" stroke="#9FC5FF"/>
<line x1="648.5" y1="-59.5234" x2="648.5" y2="660.477" stroke="#9FC5FF"/>
<line x1="672.5" y1="-59.5234" x2="672.5" y2="660.477" stroke="#9FC5FF"/>
<line x1="696.5" y1="-59.5234" x2="696.5" y2="660.477" stroke="#9FC5FF"/>
<line x1="720.5" y1="-59.5234" x2="720.5" y2="660.477" stroke="#9FC5FF"/>
<line x1="744.5" y1="-59.5234" x2="744.5" y2="660.477" stroke="#9FC5FF"/>
<line x1="768.5" y1="-59.5234" x2="768.5" y2="660.477" stroke="#9FC5FF"/>
<line x1="792.5" y1="-59.5234" x2="792.5" y2="660.477" stroke="#9FC5FF"/>
<line x1="816.5" y1="-59.5234" x2="816.5" y2="660.477" stroke="#9FC5FF"/>
<line x1="840.5" y1="-59.5234" x2="840.5" y2="660.477" stroke="#9FC5FF"/>
<line x1="864.5" y1="-59.5234" x2="864.5" y2="660.477" stroke="#9FC5FF"/>
<line x1="888.5" y1="-59.5234" x2="888.5" y2="660.477" stroke="#9FC5FF"/>
<line x1="912.5" y1="-59.5234" x2="912.5" y2="660.477" stroke="#9FC5FF"/>
<line x1="936.5" y1="-59.5234" x2="936.5" y2="660.477" stroke="#9FC5FF"/>
<line x1="960.5" y1="-59.5234" x2="960.5" y2="660.477" stroke="#9FC5FF"/>
<line x1="984.5" y1="-59.5234" x2="984.5" y2="660.477" stroke="#9FC5FF"/>
<line x1="1008.5" y1="-59.5234" x2="1008.5" y2="660.477" stroke="#9FC5FF"/>
<line x1="1032.5" y1="-59.5234" x2="1032.5" y2="660.477" stroke="#9FC5FF"/>
<line x1="1056.5" y1="-59.5234" x2="1056.5" y2="660.477" stroke="#9FC5FF"/>
<line x1="1080.5" y1="-59.5234" x2="1080.5" y2="660.477" stroke="#9FC5FF"/>
<line x1="1104.5" y1="-59.5234" x2="1104.5" y2="660.477" stroke="#9FC5FF"/>
<line x1="1128.5" y1="-59.5234" x2="1128.5" y2="660.477" stroke="#9FC5FF"/>
<line x1="1152.5" y1="-59.5234" x2="1152.5" y2="660.477" stroke="#9FC5FF"/>
<line x1="1176.5" y1="-59.5234" x2="1176.5" y2="660.477" stroke="#9FC5FF"/>
<line x1="1200.5" y1="-59.5234" x2="1200.5" y2="660.477" stroke="#9FC5FF"/>
<line x1="1224.5" y1="-59.5234" x2="1224.5" y2="660.477" stroke="#9FC5FF"/>
<line x1="1248.5" y1="-59.5234" x2="1248.5" y2="660.477" stroke="#9FC5FF"/>
<line x1="1272.5" y1="-59.5234" x2="1272.5" y2="660.477" stroke="#9FC5FF"/>
<line x1="1296.5" y1="-59.5234" x2="1296.5" y2="660.477" stroke="#9FC5FF"/>
<line x1="1320.5" y1="-59.5234" x2="1320.5" y2="660.477" stroke="#9FC5FF"/>
<line x1="1344.5" y1="-59.5234" x2="1344.5" y2="660.477" stroke="#9FC5FF"/>
<line x1="1368.5" y1="-59.5234" x2="1368.5" y2="660.477" stroke="#9FC5FF"/>
<line x1="1392.5" y1="-59.5234" x2="1392.5" y2="660.477" stroke="#9FC5FF"/>
<line x1="1416.5" y1="-59.5234" x2="1416.5" y2="660.477" stroke="#9FC5FF"/>
</g>
<rect width="744" height="1440" transform="matrix(1.19249e-08 -1 -1 -1.19249e-08 1440 741.477)" fill="url(#paint0_radial_7099_176)"/>
</g>
<defs>
<radialGradient id="paint0_radial_7099_176" cx="0" cy="0" r="1" gradientUnits="userSpaceOnUse" gradientTransform="translate(372 725.511) scale(372 635.883)">
<stop stop-color="white" stop-opacity="0.3"/>
<stop offset="1" stop-color="white"/>
</radialGradient>
</defs>
</svg>
