<svg width="1440" height="697" viewBox="0 0 1440 697" fill="none" xmlns="http://www.w3.org/2000/svg">
<g opacity="0.4">
<rect width="1440" height="952" transform="translate(0 -250.523)" fill="white"/>
<g style="mix-blend-mode:luminosity">
<line x1="1464" y1="421.977" x2="-24" y2="421.977" stroke="#9FC5FF"/>
<line x1="1464" y1="445.977" x2="-24" y2="445.977" stroke="#9FC5FF"/>
<line x1="1464" y1="469.977" x2="-24" y2="469.977" stroke="#9FC5FF"/>
<line x1="1464" y1="493.977" x2="-24" y2="493.977" stroke="#9FC5FF"/>
<line x1="1464" y1="517.977" x2="-24" y2="517.977" stroke="#9FC5FF"/>
<line x1="1464" y1="541.977" x2="-24" y2="541.977" stroke="#9FC5FF"/>
<line x1="1464" y1="565.977" x2="-24" y2="565.977" stroke="#9FC5FF"/>
<line x1="1464" y1="589.977" x2="-24" y2="589.977" stroke="#9FC5FF"/>
<line x1="1464" y1="613.977" x2="-24" y2="613.977" stroke="#9FC5FF"/>
<line x1="1464" y1="637.977" x2="-24" y2="637.977" stroke="#9FC5FF"/>
<line x1="1464" y1="661.977" x2="-24" y2="661.977" stroke="#9FC5FF"/>
<line x1="1464" y1="685.977" x2="-24" y2="685.977" stroke="#9FC5FF"/>
<line x1="24.5" y1="397.477" x2="24.5" y2="1117.48" stroke="#9FC5FF"/>
<line x1="24.5" y1="397.477" x2="24.5" y2="1117.48" stroke="#9FC5FF"/>
<line x1="48.5" y1="397.477" x2="48.5" y2="1117.48" stroke="#9FC5FF"/>
<line x1="72.5" y1="397.477" x2="72.5" y2="1117.48" stroke="#9FC5FF"/>
<line x1="96.5" y1="397.477" x2="96.5" y2="1117.48" stroke="#9FC5FF"/>
<line x1="120.5" y1="397.477" x2="120.5" y2="1117.48" stroke="#9FC5FF"/>
<line x1="144.5" y1="397.477" x2="144.5" y2="1117.48" stroke="#9FC5FF"/>
<line x1="168.5" y1="397.477" x2="168.5" y2="1117.48" stroke="#9FC5FF"/>
<line x1="192.5" y1="397.477" x2="192.5" y2="1117.48" stroke="#9FC5FF"/>
<line x1="216.5" y1="397.477" x2="216.5" y2="1117.48" stroke="#9FC5FF"/>
<line x1="240.5" y1="397.477" x2="240.5" y2="1117.48" stroke="#9FC5FF"/>
<line x1="264.5" y1="397.477" x2="264.5" y2="1117.48" stroke="#9FC5FF"/>
<line x1="288.5" y1="397.477" x2="288.5" y2="1117.48" stroke="#9FC5FF"/>
<line x1="312.5" y1="397.477" x2="312.5" y2="1117.48" stroke="#9FC5FF"/>
<line x1="336.5" y1="397.477" x2="336.5" y2="1117.48" stroke="#9FC5FF"/>
<line x1="360.5" y1="397.477" x2="360.5" y2="1117.48" stroke="#9FC5FF"/>
<line x1="384.5" y1="397.477" x2="384.5" y2="1117.48" stroke="#9FC5FF"/>
<line x1="408.5" y1="397.477" x2="408.5" y2="1117.48" stroke="#9FC5FF"/>
<line x1="432.5" y1="397.477" x2="432.5" y2="1117.48" stroke="#9FC5FF"/>
<line x1="456.5" y1="397.477" x2="456.5" y2="1117.48" stroke="#9FC5FF"/>
<line x1="480.5" y1="397.477" x2="480.5" y2="1117.48" stroke="#9FC5FF"/>
<line x1="504.5" y1="397.477" x2="504.5" y2="1117.48" stroke="#9FC5FF"/>
<line x1="528.5" y1="397.477" x2="528.5" y2="1117.48" stroke="#9FC5FF"/>
<line x1="552.5" y1="397.477" x2="552.5" y2="1117.48" stroke="#9FC5FF"/>
<line x1="576.5" y1="397.477" x2="576.5" y2="1117.48" stroke="#9FC5FF"/>
<line x1="600.5" y1="397.477" x2="600.5" y2="1117.48" stroke="#9FC5FF"/>
<line x1="624.5" y1="397.477" x2="624.5" y2="1117.48" stroke="#9FC5FF"/>
<line x1="648.5" y1="397.477" x2="648.5" y2="1117.48" stroke="#9FC5FF"/>
<line x1="672.5" y1="397.477" x2="672.5" y2="1117.48" stroke="#9FC5FF"/>
<line x1="696.5" y1="397.477" x2="696.5" y2="1117.48" stroke="#9FC5FF"/>
<line x1="720.5" y1="397.477" x2="720.5" y2="1117.48" stroke="#9FC5FF"/>
<line x1="744.5" y1="397.477" x2="744.5" y2="1117.48" stroke="#9FC5FF"/>
<line x1="768.5" y1="397.477" x2="768.5" y2="1117.48" stroke="#9FC5FF"/>
<line x1="792.5" y1="397.477" x2="792.5" y2="1117.48" stroke="#9FC5FF"/>
<line x1="816.5" y1="397.477" x2="816.5" y2="1117.48" stroke="#9FC5FF"/>
<line x1="840.5" y1="397.477" x2="840.5" y2="1117.48" stroke="#9FC5FF"/>
<line x1="864.5" y1="397.477" x2="864.5" y2="1117.48" stroke="#9FC5FF"/>
<line x1="888.5" y1="397.477" x2="888.5" y2="1117.48" stroke="#9FC5FF"/>
<line x1="912.5" y1="397.477" x2="912.5" y2="1117.48" stroke="#9FC5FF"/>
<line x1="936.5" y1="397.477" x2="936.5" y2="1117.48" stroke="#9FC5FF"/>
<line x1="960.5" y1="397.477" x2="960.5" y2="1117.48" stroke="#9FC5FF"/>
<line x1="984.5" y1="397.477" x2="984.5" y2="1117.48" stroke="#9FC5FF"/>
<line x1="1008.5" y1="397.477" x2="1008.5" y2="1117.48" stroke="#9FC5FF"/>
<line x1="1032.5" y1="397.477" x2="1032.5" y2="1117.48" stroke="#9FC5FF"/>
<line x1="1056.5" y1="397.477" x2="1056.5" y2="1117.48" stroke="#9FC5FF"/>
<line x1="1080.5" y1="397.477" x2="1080.5" y2="1117.48" stroke="#9FC5FF"/>
<line x1="1104.5" y1="397.477" x2="1104.5" y2="1117.48" stroke="#9FC5FF"/>
<line x1="1128.5" y1="397.477" x2="1128.5" y2="1117.48" stroke="#9FC5FF"/>
<line x1="1152.5" y1="397.477" x2="1152.5" y2="1117.48" stroke="#9FC5FF"/>
<line x1="1176.5" y1="397.477" x2="1176.5" y2="1117.48" stroke="#9FC5FF"/>
<line x1="1200.5" y1="397.477" x2="1200.5" y2="1117.48" stroke="#9FC5FF"/>
<line x1="1224.5" y1="397.477" x2="1224.5" y2="1117.48" stroke="#9FC5FF"/>
<line x1="1248.5" y1="397.477" x2="1248.5" y2="1117.48" stroke="#9FC5FF"/>
<line x1="1272.5" y1="397.477" x2="1272.5" y2="1117.48" stroke="#9FC5FF"/>
<line x1="1296.5" y1="397.477" x2="1296.5" y2="1117.48" stroke="#9FC5FF"/>
<line x1="1320.5" y1="397.477" x2="1320.5" y2="1117.48" stroke="#9FC5FF"/>
<line x1="1344.5" y1="397.477" x2="1344.5" y2="1117.48" stroke="#9FC5FF"/>
<line x1="1368.5" y1="397.477" x2="1368.5" y2="1117.48" stroke="#9FC5FF"/>
<line x1="1392.5" y1="397.477" x2="1392.5" y2="1117.48" stroke="#9FC5FF"/>
<line x1="1416.5" y1="397.477" x2="1416.5" y2="1117.48" stroke="#9FC5FF"/>
<line x1="0.5" y1="-298.523" x2="0.499969" y2="421.477" stroke="#9FC5FF"/>
<line x1="1464" y1="13.9766" x2="-24" y2="13.9766" stroke="#9FC5FF"/>
<line x1="1464" y1="37.9766" x2="-24" y2="37.9766" stroke="#9FC5FF"/>
<line x1="1464" y1="61.9766" x2="-24" y2="61.9766" stroke="#9FC5FF"/>
<line x1="1464" y1="85.9766" x2="-24" y2="85.9766" stroke="#9FC5FF"/>
<line x1="1464" y1="109.977" x2="-24" y2="109.977" stroke="#9FC5FF"/>
<line x1="1464" y1="133.977" x2="-24" y2="133.977" stroke="#9FC5FF"/>
<line x1="1464" y1="157.977" x2="-24" y2="157.977" stroke="#9FC5FF"/>
<line x1="1464" y1="181.977" x2="-24" y2="181.977" stroke="#9FC5FF"/>
<line x1="1464" y1="205.977" x2="-24" y2="205.977" stroke="#9FC5FF"/>
<line x1="1464" y1="229.977" x2="-24" y2="229.977" stroke="#9FC5FF"/>
<line x1="1464" y1="253.977" x2="-24" y2="253.977" stroke="#9FC5FF"/>
<line x1="1464" y1="277.977" x2="-24" y2="277.977" stroke="#9FC5FF"/>
<line x1="1464" y1="301.977" x2="-24" y2="301.977" stroke="#9FC5FF"/>
<line x1="1464" y1="325.977" x2="-24" y2="325.977" stroke="#9FC5FF"/>
<line x1="1464" y1="349.977" x2="-24" y2="349.977" stroke="#9FC5FF"/>
<line x1="1464" y1="373.977" x2="-24" y2="373.977" stroke="#9FC5FF"/>
<line x1="1464" y1="397.977" x2="-24" y2="397.977" stroke="#9FC5FF"/>
<line x1="24.5" y1="-298.523" x2="24.5" y2="421.477" stroke="#9FC5FF"/>
<line x1="24.5" y1="-298.523" x2="24.5" y2="421.477" stroke="#9FC5FF"/>
<line x1="48.5" y1="-298.523" x2="48.5" y2="421.477" stroke="#9FC5FF"/>
<line x1="72.5" y1="-298.523" x2="72.5" y2="421.477" stroke="#9FC5FF"/>
<line x1="96.5" y1="-298.523" x2="96.5" y2="421.477" stroke="#9FC5FF"/>
<line x1="120.5" y1="-298.523" x2="120.5" y2="421.477" stroke="#9FC5FF"/>
<line x1="144.5" y1="-298.523" x2="144.5" y2="421.477" stroke="#9FC5FF"/>
<line x1="168.5" y1="-298.523" x2="168.5" y2="421.477" stroke="#9FC5FF"/>
<line x1="192.5" y1="-298.523" x2="192.5" y2="421.477" stroke="#9FC5FF"/>
<line x1="216.5" y1="-298.523" x2="216.5" y2="421.477" stroke="#9FC5FF"/>
<line x1="240.5" y1="-298.523" x2="240.5" y2="421.477" stroke="#9FC5FF"/>
<line x1="264.5" y1="-298.523" x2="264.5" y2="421.477" stroke="#9FC5FF"/>
<line x1="288.5" y1="-298.523" x2="288.5" y2="421.477" stroke="#9FC5FF"/>
<line x1="312.5" y1="-298.523" x2="312.5" y2="421.477" stroke="#9FC5FF"/>
<line x1="336.5" y1="-298.523" x2="336.5" y2="421.477" stroke="#9FC5FF"/>
<line x1="360.5" y1="-298.523" x2="360.5" y2="421.477" stroke="#9FC5FF"/>
<line x1="384.5" y1="-298.523" x2="384.5" y2="421.477" stroke="#9FC5FF"/>
<line x1="408.5" y1="-298.523" x2="408.5" y2="421.477" stroke="#9FC5FF"/>
<line x1="432.5" y1="-298.523" x2="432.5" y2="421.477" stroke="#9FC5FF"/>
<line x1="456.5" y1="-298.523" x2="456.5" y2="421.477" stroke="#9FC5FF"/>
<line x1="480.5" y1="-298.523" x2="480.5" y2="421.477" stroke="#9FC5FF"/>
<line x1="504.5" y1="-298.523" x2="504.5" y2="421.477" stroke="#9FC5FF"/>
<line x1="528.5" y1="-298.523" x2="528.5" y2="421.477" stroke="#9FC5FF"/>
<line x1="552.5" y1="-298.523" x2="552.5" y2="421.477" stroke="#9FC5FF"/>
<line x1="576.5" y1="-298.523" x2="576.5" y2="421.477" stroke="#9FC5FF"/>
<line x1="600.5" y1="-298.523" x2="600.5" y2="421.477" stroke="#9FC5FF"/>
<line x1="624.5" y1="-298.523" x2="624.5" y2="421.477" stroke="#9FC5FF"/>
<line x1="648.5" y1="-298.523" x2="648.5" y2="421.477" stroke="#9FC5FF"/>
<line x1="672.5" y1="-298.523" x2="672.5" y2="421.477" stroke="#9FC5FF"/>
<line x1="696.5" y1="-298.523" x2="696.5" y2="421.477" stroke="#9FC5FF"/>
<line x1="720.5" y1="-298.523" x2="720.5" y2="421.477" stroke="#9FC5FF"/>
<line x1="744.5" y1="-298.523" x2="744.5" y2="421.477" stroke="#9FC5FF"/>
<line x1="768.5" y1="-298.523" x2="768.5" y2="421.477" stroke="#9FC5FF"/>
<line x1="792.5" y1="-298.523" x2="792.5" y2="421.477" stroke="#9FC5FF"/>
<line x1="816.5" y1="-298.523" x2="816.5" y2="421.477" stroke="#9FC5FF"/>
<line x1="840.5" y1="-298.523" x2="840.5" y2="421.477" stroke="#9FC5FF"/>
<line x1="864.5" y1="-298.523" x2="864.5" y2="421.477" stroke="#9FC5FF"/>
<line x1="888.5" y1="-298.523" x2="888.5" y2="421.477" stroke="#9FC5FF"/>
<line x1="912.5" y1="-298.523" x2="912.5" y2="421.477" stroke="#9FC5FF"/>
<line x1="936.5" y1="-298.523" x2="936.5" y2="421.477" stroke="#9FC5FF"/>
<line x1="960.5" y1="-298.523" x2="960.5" y2="421.477" stroke="#9FC5FF"/>
<line x1="984.5" y1="-298.523" x2="984.5" y2="421.477" stroke="#9FC5FF"/>
<line x1="1008.5" y1="-298.523" x2="1008.5" y2="421.477" stroke="#9FC5FF"/>
<line x1="1032.5" y1="-298.523" x2="1032.5" y2="421.477" stroke="#9FC5FF"/>
<line x1="1056.5" y1="-298.523" x2="1056.5" y2="421.477" stroke="#9FC5FF"/>
<line x1="1080.5" y1="-298.523" x2="1080.5" y2="421.477" stroke="#9FC5FF"/>
<line x1="1104.5" y1="-298.523" x2="1104.5" y2="421.477" stroke="#9FC5FF"/>
<line x1="1128.5" y1="-298.523" x2="1128.5" y2="421.477" stroke="#9FC5FF"/>
<line x1="1152.5" y1="-298.523" x2="1152.5" y2="421.477" stroke="#9FC5FF"/>
<line x1="1176.5" y1="-298.523" x2="1176.5" y2="421.477" stroke="#9FC5FF"/>
<line x1="1200.5" y1="-298.523" x2="1200.5" y2="421.477" stroke="#9FC5FF"/>
<line x1="1224.5" y1="-298.523" x2="1224.5" y2="421.477" stroke="#9FC5FF"/>
<line x1="1248.5" y1="-298.523" x2="1248.5" y2="421.477" stroke="#9FC5FF"/>
<line x1="1272.5" y1="-298.523" x2="1272.5" y2="421.477" stroke="#9FC5FF"/>
<line x1="1296.5" y1="-298.523" x2="1296.5" y2="421.477" stroke="#9FC5FF"/>
<line x1="1320.5" y1="-298.523" x2="1320.5" y2="421.477" stroke="#9FC5FF"/>
<line x1="1344.5" y1="-298.523" x2="1344.5" y2="421.477" stroke="#9FC5FF"/>
<line x1="1368.5" y1="-298.523" x2="1368.5" y2="421.477" stroke="#9FC5FF"/>
<line x1="1392.5" y1="-298.523" x2="1392.5" y2="421.477" stroke="#9FC5FF"/>
<line x1="1416.5" y1="-298.523" x2="1416.5" y2="421.477" stroke="#9FC5FF"/>
</g>
<rect width="702" height="1440" transform="matrix(1.19249e-08 -1 -1 -1.19249e-08 1440 701.477)" fill="url(#paint0_radial_7160_446)"/>
</g>
<defs>
<radialGradient id="paint0_radial_7160_446" cx="0" cy="0" r="1" gradientUnits="userSpaceOnUse" gradientTransform="translate(351 725.511) scale(258.68 598.318)">
<stop stop-color="white" stop-opacity="0.3"/>
<stop offset="1" stop-color="white"/>
</radialGradient>
</defs>
</svg>
