<svg width="191" height="40" viewBox="0 0 191 40" fill="none" xmlns="http://www.w3.org/2000/svg">
<g style="mix-blend-mode:luminosity" clip-path="url(#clip0_6757_80)">
<path d="M187.236 34.7496H186.861V35.8746H187.236C187.611 35.8746 187.861 35.6246 187.861 35.2496C187.736 34.8746 187.611 34.7496 187.236 34.7496ZM188.111 37.7496L186.986 36.2496H186.611V37.7496H185.986V34.1246H187.111C187.861 34.1246 188.236 34.4996 188.236 35.2496C188.236 35.8746 187.986 36.2496 187.486 36.2496L188.486 37.7496H188.111ZM187.236 33.2496C185.736 33.2496 184.611 34.3746 184.611 36.1246C184.611 37.9995 185.736 38.9995 187.236 38.9995C188.736 38.9995 189.861 37.8745 189.861 36.1246C189.861 34.1246 188.736 33.2496 187.236 33.2496ZM187.236 39.2495C185.361 39.2495 184.236 37.8745 184.236 35.9996C184.236 34.1246 185.611 32.7496 187.236 32.7496C189.111 32.7496 190.236 34.1246 190.236 35.9996C190.236 37.8745 188.861 39.2495 187.236 39.2495ZM27.988 22.1247H18.4881C19.1131 21.1248 27.988 6.37492 27.988 6.37492V22.1247ZM23.988 0L0.238281 39.3745H8.36318C8.36318 39.3745 14.2381 29.6246 14.3631 29.2497H27.988V39.3745H35.7379V0H23.988ZM41.2378 0V39.3745H48.6127V0H41.2378ZM54.1126 0H61.4876V39.3745H54.1126V0ZM77.8624 20.6248C73.8624 19.4998 72.9874 18.8748 73.1124 17.2498C73.1124 15.7498 74.4874 14.7498 76.4874 14.7498C79.1124 14.7498 82.1123 15.7498 84.9873 17.2498L85.3623 17.4998L86.3623 10.8749L86.1123 10.6249C83.2373 9.49989 80.1123 8.7499 76.4874 8.7499C73.1124 8.7499 70.2375 9.87488 68.3625 11.7499C66.8625 13.2498 66.1125 15.3748 66.1125 17.6248C66.3625 23.6247 69.1125 25.4997 75.7374 27.2497C80.1123 28.3747 80.9873 28.9997 80.9873 31.2496C80.9873 33.1246 79.8623 33.8746 76.8624 33.8746C73.6124 33.8746 70.2374 32.7496 67.2375 30.6246L66.8625 30.2496L65.4875 36.9996L65.7375 37.2496C68.2375 38.6245 72.1124 40.1245 76.4874 40.1245C80.6123 40.1245 83.6123 39.1245 85.6123 37.1246C87.1123 35.6246 87.8622 33.4996 87.8622 30.8746C87.8622 23.9997 84.6123 22.4997 77.8624 20.6248ZM105.987 32.6246L105.612 32.8746C104.987 33.1246 104.487 33.1246 103.487 33.1246C101.237 33.1246 100.237 32.1246 100.237 29.8746V15.7498H105.737L105.987 9.37489H100.487V0H93.1122V9.37489H89.3622V15.7498H93.1122V30.9996C93.1122 36.9996 96.1121 39.8745 102.362 39.8745C104.487 39.8745 105.612 39.6245 106.737 39.2495H107.112L105.987 32.6246ZM119.237 33.9996C117.362 33.9996 116.237 32.8746 116.237 30.9996C116.237 27.6247 119.237 25.4997 125.362 24.6247V31.2496C123.612 32.8746 121.487 33.9996 119.237 33.9996ZM121.862 8.8749C117.112 8.8749 113.737 9.99988 110.862 11.1249L110.737 11.2499L111.737 17.6248L112.112 17.3748C115.487 15.8748 118.362 15.1248 120.987 15.1248C123.987 15.1248 125.362 16.4998 125.362 19.1248V19.8748C114.362 20.9998 108.987 24.9997 108.987 31.7496C108.987 36.8746 112.237 39.9995 117.112 39.9995C120.487 39.9995 123.362 38.6245 125.987 35.9996C126.237 36.9996 126.612 39.3745 126.612 39.3745H132.987V18.7498C132.862 11.9999 129.237 8.8749 121.862 8.8749ZM151.861 32.6246L151.486 32.8746C150.861 33.1246 150.362 33.1246 149.362 33.1246C147.112 33.1246 146.112 32.1246 146.112 29.8746V15.7498H151.611L151.861 9.37489H146.237V0H138.862V9.37489H135.112V15.7498H138.862V30.9996C138.862 36.9996 141.862 39.8745 148.112 39.8745C149.612 39.8745 150.986 39.6245 152.486 39.2495H152.861L151.861 32.6246ZM161.486 20.9998C161.861 16.6248 163.611 14.2498 166.611 14.2498C170.361 14.2498 171.486 17.8748 171.736 20.9998C171.486 20.9998 161.486 20.9998 161.486 20.9998ZM177.361 30.3746C173.986 32.8746 171.361 33.7496 168.236 33.7496C164.236 33.7496 161.861 30.8746 161.236 25.9997H178.611V23.8747C178.611 13.7498 174.486 8.4999 166.486 8.4999C162.861 8.4999 160.111 9.62489 157.736 11.8749C155.111 14.7498 153.611 18.8748 153.611 24.1247C153.611 33.7496 158.861 39.4995 167.236 39.4995C171.361 39.4995 174.986 38.3745 178.361 35.8746L178.611 35.6246L177.611 29.3747C177.986 29.9996 177.361 30.3746 177.361 30.3746Z" fill="black"/>
</g>
<defs>
<clipPath id="clip0_6757_80">
<rect width="190.474" height="39.9995" fill="white" transform="translate(0 0.000244141)"/>
</clipPath>
</defs>
</svg>
