<svg width="175" height="40" viewBox="0 0 175 40" fill="none" xmlns="http://www.w3.org/2000/svg">
<g style="mix-blend-mode:luminosity" clip-path="url(#clip0_6757_1071)">
<path d="M18.7886 39.9998H32.1674C32.7914 39.9998 33.3242 39.4671 33.3242 38.843V32.0851C33.3242 31.4611 32.7914 30.9283 32.1674 30.9283H18.7886C13.1722 30.9283 11.7415 30.213 11.3609 24.2618H31.4064C32.0304 24.2618 32.5631 23.729 32.5631 23.105V16.6363C32.5631 16.0122 32.0304 15.4795 31.4064 15.4795H11.4066C11.7871 9.81748 13.3244 9.14778 18.7886 9.14778H32.1674C32.7914 9.14778 33.3242 8.61506 33.3242 7.99102V1.157C33.3242 0.532962 32.7914 0.000244141 32.1674 0.000244141H18.7886C0.0825395 0.000244141 0.417392 8.87381 0.417392 20C0.417392 31.1262 0.0825395 39.9998 18.7886 39.9998Z" fill="#051B4C"/>
<path d="M54.7092 39.9998C69.8689 39.9998 72.5477 34.1551 72.9738 26.0426C73.0195 25.3729 72.4868 24.7945 71.8171 24.7945H63.1414C62.563 24.7945 62.0455 25.2206 61.9846 25.799C61.4519 30.2586 59.732 30.8827 54.694 30.8827C47.9818 30.8827 47.2207 29.8325 47.1598 20C47.1598 10.1676 47.9818 9.11734 54.694 9.11734C59.6407 9.11734 61.3606 9.69572 61.939 13.9575C62.0303 14.5358 62.5173 14.962 63.0957 14.962H71.7714C72.4411 14.962 72.9738 14.3836 72.9282 13.7139C72.4563 5.70794 69.671 0.000244141 54.6636 0.000244141C35.9575 0.000244141 36.2924 8.87381 36.2924 20C36.2924 31.1262 36.0032 39.9998 54.7092 39.9998Z" fill="#051B4C"/>
<path d="M102.943 0.0914379C101.892 0.0914379 100.979 0.959008 100.979 2.05488V14.9162H87.1133V2.00922C87.1133 0.959008 86.2457 0.0457764 85.1498 0.0457764H78.3463C77.296 0.0457764 76.3828 0.913346 76.3828 2.00922V37.9753C76.3828 39.0255 77.2504 39.9388 78.3463 39.9388H85.1498C86.2 39.9388 87.1133 39.0712 87.1133 37.9753V24.977H100.979V38.021C100.979 39.0712 101.847 39.9844 102.943 39.9844H109.746C110.796 39.9844 111.71 39.1169 111.71 38.021V2.05488C111.71 1.00467 110.842 0.0914379 109.746 0.0914379H102.943Z" fill="#051B4C"/>
<path d="M133.689 39.9998C152.395 39.9998 152.06 31.1262 152.06 20C152.06 8.87381 152.395 0.000244141 133.689 0.000244141C114.983 0.000244141 115.318 8.87381 115.318 20C115.318 31.1262 114.983 39.9998 133.689 39.9998ZM133.689 9.11734C140.401 9.11734 141.223 10.1676 141.223 20C141.223 29.8325 140.401 30.8827 133.689 30.8827C126.977 30.8827 126.155 29.8325 126.155 20C126.155 10.1676 126.977 9.11734 133.689 9.11734Z" fill="#051B4C"/>
<path d="M152.715 0.0914379C152.7 0.0762174 152.715 0.0457764 152.73 0.0457764C162.578 2.77025 163.734 10.4718 163.734 20.0151C163.734 29.5584 162.578 37.2143 152.73 39.9844C152.7 39.9844 152.684 39.954 152.715 39.9388C158.392 35.9205 159.595 28.7212 159.595 19.9999C159.595 11.2785 158.392 4.10965 152.715 0.0914379Z" fill="#38A70C"/>
<path d="M163.856 0.0914379C163.841 0.0762174 163.856 0.0457764 163.872 0.0457764C173.719 2.77025 174.876 10.4718 174.876 20.0151C174.876 29.5736 173.719 37.2143 163.872 39.9844C163.841 39.9844 163.826 39.954 163.856 39.9388C169.534 35.9205 170.736 28.7212 170.736 19.9999C170.736 11.2785 169.534 4.10965 163.856 0.0914379Z" fill="#38A70C"/>
<path d="M172.651 39.8325C172.195 39.6194 171.921 39.1932 171.921 38.5388V38.417C171.921 38.1126 171.997 37.8386 172.119 37.6103C172.378 37.1689 172.849 36.9102 173.397 36.9102C173.671 36.9102 173.915 36.971 174.143 37.0928C174.6 37.3363 174.889 37.7777 174.889 38.4018V38.5388C174.889 38.8432 174.813 39.1171 174.691 39.3302C174.417 39.7564 173.96 39.9999 173.412 39.9999C173.139 39.9999 172.865 39.9543 172.651 39.8325ZM174.524 38.5235V38.4474C174.524 37.6864 174.067 37.2754 173.397 37.2754C172.728 37.2754 172.286 37.7168 172.286 38.4626V38.5388C172.286 39.2998 172.728 39.6803 173.412 39.6803C174.097 39.6803 174.524 39.2693 174.524 38.5235ZM173.154 39.2389H172.819V37.656H173.458C173.9 37.656 174.082 37.869 174.082 38.143C174.082 38.3561 173.976 38.4931 173.778 38.554C173.96 38.5996 174.037 38.7062 174.037 38.9497V39.1628C174.037 39.1932 174.037 39.2389 174.067 39.2541H173.732C173.702 39.2389 173.702 39.2237 173.702 39.1628V38.9497C173.702 38.7671 173.671 38.7062 173.428 38.7062H173.169L173.154 39.2389ZM173.154 38.4018H173.397C173.641 38.4018 173.732 38.3104 173.732 38.1582C173.732 38.006 173.626 37.9452 173.412 37.9452H173.154V38.4018Z" fill="#051B4C"/>
</g>
<defs>
<clipPath id="clip0_6757_1071">
<rect width="174.473" height="39.9995" fill="white" transform="translate(0.416016 0.000244141)"/>
</clipPath>
</defs>
</svg>
