<svg width="217" height="40" viewBox="0 0 217 40" fill="none" xmlns="http://www.w3.org/2000/svg">
<g style="mix-blend-mode:luminosity">
<path d="M66.1529 10.5035C65.6135 9.89078 64.8944 9.36562 63.9955 8.92799C63.0966 8.49035 62.1078 8.3153 61.2089 8.3153C60.6695 8.3153 60.1302 8.40282 59.5009 8.49035C58.9616 8.66541 58.4223 8.84046 57.9728 9.10304C57.5233 9.36562 57.1638 9.71573 56.8941 10.2409C56.6244 10.6785 56.4447 11.2037 56.4447 11.9039C56.4447 12.5166 56.5345 13.0418 56.8042 13.3919C57.0739 13.8295 57.4335 14.1796 57.8829 14.4422C58.3324 14.7048 58.8717 14.9674 59.5009 15.2299C60.1302 15.4925 60.8493 15.6676 61.5684 15.9302C62.4673 16.1927 63.2764 16.5428 64.2652 16.893C65.1641 17.2431 66.063 17.6807 66.7821 18.2934C67.5911 18.8185 68.2204 19.6063 68.6698 20.394C69.1193 21.2693 69.3889 22.3196 69.3889 23.6325C69.3889 25.033 69.1193 26.2583 68.5799 27.3087C68.0406 28.359 67.3215 29.2343 66.4225 29.9345C65.5236 30.6347 64.5348 31.1599 63.2764 31.51C62.1078 31.8601 60.8493 32.0351 59.5009 32.0351C57.793 32.0351 56.0851 31.685 54.3772 31.0723C52.6692 30.4596 51.3209 29.4968 50.2422 28.2715L53.658 25.208C54.2873 26.0833 55.1862 26.7835 56.2649 27.3087C57.3436 27.8338 58.4223 28.0964 59.5009 28.0964C60.0403 28.0964 60.6695 28.0089 61.2089 27.9214C61.7482 27.7463 62.2876 27.5713 62.8269 27.2211C63.2764 26.871 63.6359 26.5209 63.9955 25.9958C64.2652 25.5581 64.4449 24.9454 64.4449 24.2452C64.4449 23.545 64.2652 23.0198 63.9955 22.4947C63.6359 22.057 63.1865 21.6194 62.6471 21.3568C62.1078 21.0067 61.4785 20.7441 60.6695 20.4816C59.9504 20.219 59.1414 19.9564 58.2425 19.6938C57.4335 19.4312 56.6244 19.1687 55.8154 18.8185C55.0064 18.4684 54.2873 18.0308 53.658 17.4181C53.0288 16.893 52.4895 16.1927 52.04 15.3175C51.5906 14.5297 51.4108 13.4794 51.4108 12.254C51.4108 10.9411 51.6804 9.80326 52.2198 8.84046C52.7591 7.87766 53.5681 7.08992 54.4671 6.47723C55.366 5.86454 56.4447 5.33938 57.6132 5.0768C58.7818 4.72669 59.9504 4.63916 61.2089 4.63916C62.5572 4.63916 63.9955 4.90174 65.3439 5.33938C66.7821 5.77701 67.9507 6.47723 69.0294 7.44003L66.1529 10.5035Z" fill="#20855B"/>
<path d="M71.1885 16.9807V13.4797H74.3347V8.31555H78.8292V13.4797H83.4136V16.9807H78.8292V25.2083C78.8292 25.996 79.009 26.6087 79.2787 27.1339C79.5483 27.659 80.1776 27.9216 81.2563 27.9216C81.5259 27.9216 81.8855 27.9216 82.2451 27.8341C82.6046 27.7466 82.8743 27.659 83.2339 27.5715L83.4136 31.0726C82.9642 31.2476 82.5147 31.3352 81.9754 31.4227C81.436 31.5102 80.8967 31.5102 80.3573 31.5102C79.1888 31.5102 78.2 31.3352 77.3909 30.9851C76.6718 30.635 76.0426 30.1973 75.5931 29.5846C75.1437 28.9719 74.874 28.3593 74.6942 27.5715C74.5144 26.7838 74.4245 25.996 74.4245 25.1208V16.8932H71.1885V16.9807Z" fill="#20855B"/>
<path d="M103.456 22.4946V23.1072C103.456 23.2823 103.456 23.5449 103.456 23.7199H89.6127C89.7026 24.3326 89.7924 24.9453 90.152 25.4705C90.4217 25.9956 90.8711 26.4333 91.3206 26.8709C91.77 27.221 92.3094 27.5711 92.9386 27.7462C93.5679 28.0088 94.1971 28.0963 94.8263 28.0963C95.9949 28.0963 96.8938 27.9212 97.7028 27.4836C98.5119 27.046 99.1411 26.5208 99.6804 25.8206L102.737 28.1838C100.939 30.547 98.3321 31.6849 94.9162 31.6849C93.478 31.6849 92.2195 31.5098 91.0509 31.0722C89.8823 30.6346 88.8036 30.0219 87.9946 29.2341C87.0957 28.4464 86.4665 27.4836 85.9271 26.3457C85.4777 25.2079 85.208 23.895 85.208 22.407C85.208 21.0066 85.4777 19.6937 85.9271 18.5558C86.3766 17.418 87.0957 16.3677 87.9946 15.5799C88.8935 14.7922 89.8823 14.092 91.0509 13.6543C92.2195 13.2167 93.478 12.9541 94.8263 12.9541C96.0848 12.9541 97.2534 13.1292 98.3321 13.5668C99.4108 14.0044 100.31 14.6171 101.119 15.4049C101.928 16.1926 102.557 17.2429 102.917 18.3808C103.276 19.5186 103.456 20.9191 103.456 22.4946ZM98.9613 20.4814C98.9613 19.9563 98.8714 19.3436 98.6916 18.8184C98.5119 18.2933 98.2422 17.8556 97.8826 17.418C97.5231 17.0679 97.0736 16.7178 96.5343 16.4552C95.9949 16.1926 95.3657 16.1051 94.6465 16.1051C93.2982 16.1051 92.1296 16.5427 91.1408 17.3305C90.152 18.1182 89.7026 19.1685 89.5228 20.3939H98.9613V20.4814Z" fill="#20855B"/>
<path d="M106.419 13.3924H110.824V16.3683H110.913C111.453 15.3179 112.082 14.5302 113.071 13.83C113.97 13.2173 115.048 12.8672 116.217 12.8672C116.397 12.8672 116.577 12.8672 116.756 12.8672C116.936 12.8672 117.116 12.8672 117.296 12.9547V16.981C117.026 16.8934 116.756 16.8934 116.487 16.8059C116.307 16.8059 116.037 16.8059 115.857 16.8059C114.779 16.8059 113.97 16.981 113.341 17.3311C112.711 17.6812 112.172 18.1188 111.902 18.644C111.543 19.1691 111.273 19.6943 111.183 20.2195C111.093 20.7446 111.003 21.1823 111.003 21.5324V30.9853H106.419V13.3924Z" fill="#20855B"/>
<path d="M119.639 7.43966C119.639 6.73944 119.908 6.12675 120.448 5.60159C120.987 5.07642 121.706 4.81384 122.515 4.81384C123.324 4.81384 124.043 5.07642 124.583 5.60159C125.122 6.12675 125.392 6.73944 125.392 7.52718C125.392 8.31493 125.122 8.92762 124.583 9.45278C124.043 9.97794 123.324 10.2405 122.515 10.2405C121.706 10.2405 120.987 9.97794 120.448 9.45278C119.908 8.75256 119.639 8.13987 119.639 7.43966ZM120.268 13.3915H124.852V31.072H120.268V13.3915Z" fill="#20855B"/>
<path d="M141.298 18.3814C140.938 17.8562 140.399 17.5061 139.68 17.156C138.961 16.8059 138.242 16.6309 137.523 16.6309C136.714 16.6309 135.994 16.8059 135.365 17.156C134.736 17.5061 134.197 17.9438 133.747 18.4689C133.298 18.9941 133.028 19.6068 132.848 20.307C132.668 21.0072 132.579 21.7074 132.579 22.3201C132.579 23.0203 132.668 23.7205 132.938 24.3332C133.118 25.0335 133.477 25.6461 133.927 26.1713C134.376 26.6965 134.916 27.1341 135.545 27.4842C136.174 27.8343 136.983 28.0094 137.792 28.0094C138.511 28.0094 139.23 27.8343 139.95 27.5717C140.669 27.3092 141.208 26.8715 141.658 26.4339L144.534 29.2348C143.815 30.0225 142.826 30.6352 141.658 31.0728C140.489 31.5105 139.23 31.6855 137.882 31.6855C136.534 31.6855 135.275 31.5105 134.107 31.0728C132.938 30.6352 131.859 30.0225 130.961 29.2348C130.062 28.447 129.342 27.3967 128.803 26.2588C128.264 25.121 127.994 23.8081 127.994 22.3201C127.994 20.9197 128.264 19.6068 128.803 18.4689C129.342 17.3311 130.062 16.3683 130.871 15.493C131.77 14.7053 132.758 14.0926 133.927 13.5674C135.096 13.1298 136.354 12.8672 137.702 12.8672C139.051 12.8672 140.309 13.1298 141.568 13.5674C142.826 14.0926 143.815 14.7053 144.534 15.5805L141.298 18.3814Z" fill="#20855B"/>
<path d="M145.793 13.3917H150.827L155.951 26.2582H156.041L160.535 13.3917H165.299L156.67 34.9234C156.31 35.7111 155.951 36.4989 155.591 37.1116C155.232 37.7243 154.782 38.2494 154.243 38.687C153.703 39.1247 153.074 39.4748 152.355 39.6498C151.636 39.9124 150.737 40 149.748 40C149.389 40 148.939 40 148.58 39.9124C148.22 39.9124 147.771 39.8249 147.411 39.7374L147.771 35.8862C148.04 35.9737 148.4 36.0612 148.669 36.0612C148.939 36.0612 149.209 36.1488 149.478 36.1488C149.928 36.1488 150.377 36.0612 150.647 35.9737C151.007 35.8862 151.276 35.7111 151.456 35.4485C151.726 35.186 151.906 34.9234 152.085 34.5733C152.265 34.2232 152.445 33.7855 152.625 33.3479L153.524 31.0722L145.793 13.3917Z" fill="#20855B"/>
<path d="M178.877 18.3814C178.518 17.8562 177.978 17.5061 177.259 17.156C176.54 16.8059 175.821 16.6309 175.102 16.6309C174.293 16.6309 173.574 16.8059 172.944 17.156C172.315 17.5061 171.776 17.9438 171.326 18.4689C170.877 18.9941 170.607 19.6068 170.427 20.307C170.248 21.0072 170.158 21.7074 170.158 22.3201C170.158 23.0203 170.248 23.7205 170.517 24.3332C170.697 25.0335 171.057 25.6461 171.506 26.1713C171.955 26.6965 172.495 27.1341 173.124 27.4842C173.753 27.8343 174.562 28.0094 175.371 28.0094C176.09 28.0094 176.81 27.8343 177.529 27.5717C178.248 27.3092 178.787 26.8715 179.237 26.4339L182.113 29.2348C181.394 30.0225 180.405 30.6352 179.237 31.0728C178.068 31.5105 176.81 31.6855 175.461 31.6855C174.113 31.6855 172.854 31.5105 171.686 31.0728C170.517 30.6352 169.439 30.0225 168.54 29.2348C167.641 28.447 166.922 27.3967 166.382 26.2588C165.843 25.121 165.573 23.8081 165.573 22.3201C165.573 20.9197 165.843 19.6068 166.382 18.4689C166.922 17.3311 167.641 16.3683 168.45 15.493C169.349 14.7053 170.337 14.0926 171.506 13.5674C172.675 13.1298 173.933 12.8672 175.281 12.8672C176.63 12.8672 177.888 13.1298 179.147 13.5674C180.405 14.0926 181.394 14.7053 182.113 15.5805L178.877 18.3814Z" fill="#20855B"/>
<path d="M189.665 3.23743H185.081V31.1586H189.665V3.23743Z" fill="#20855B"/>
<path d="M210.429 22.4946V23.1072C210.429 23.2823 210.429 23.5449 210.429 23.7199H196.585C196.675 24.3326 196.765 24.9453 197.125 25.4705C197.394 25.9956 197.844 26.4333 198.293 26.8709C198.743 27.221 199.282 27.5711 199.911 27.7462C200.541 28.0088 201.17 28.0963 201.799 28.0963C202.968 28.0963 203.866 27.9212 204.675 27.4836C205.485 27.046 206.114 26.5208 206.653 25.8206L209.709 28.1838C207.912 30.547 205.305 31.6849 201.889 31.6849C200.451 31.6849 199.192 31.5098 198.024 31.0722C196.855 30.6346 195.776 30.0219 194.967 29.2341C194.068 28.4464 193.439 27.4836 192.9 26.3457C192.45 25.2079 192.181 23.895 192.181 22.407C192.181 21.0066 192.45 19.6937 192.9 18.5558C193.349 17.418 194.068 16.3677 194.967 15.5799C195.866 14.7922 196.855 14.092 198.024 13.6543C199.192 13.2167 200.451 12.9541 201.799 12.9541C203.057 12.9541 204.226 13.1292 205.305 13.5668C206.383 14.0044 207.282 14.6171 208.091 15.4049C208.9 16.1926 209.53 17.2429 209.889 18.3808C210.249 19.5186 210.429 20.9191 210.429 22.4946ZM205.934 20.4814C205.934 19.9563 205.844 19.3436 205.664 18.8184C205.485 18.2933 205.215 17.8556 204.855 17.418C204.496 17.0679 204.046 16.7178 203.507 16.4552C202.968 16.1926 202.338 16.1051 201.619 16.1051C200.271 16.1051 199.102 16.5427 198.113 17.3305C197.125 18.1182 196.675 19.1685 196.495 20.3939H205.934V20.4814Z" fill="#20855B"/>
<path d="M210.246 11.2039C210.246 10.8538 210.336 10.4162 210.516 10.0661C210.696 9.71599 210.875 9.4534 211.145 9.19082C211.415 8.92824 211.684 8.75319 212.044 8.57813C212.403 8.40308 212.763 8.31555 213.212 8.31555C213.662 8.31555 214.022 8.40308 214.381 8.57813C214.741 8.75319 215.01 8.92824 215.28 9.19082C215.55 9.4534 215.729 9.71599 215.909 10.0661C216.089 10.4162 216.179 10.7663 216.179 11.2039C216.179 11.5541 216.089 11.9917 215.909 12.2543C215.729 12.6044 215.55 12.867 215.28 13.1295C215.01 13.3921 214.741 13.5672 214.381 13.7422C214.022 13.9173 213.662 13.9173 213.212 13.9173C212.763 13.9173 212.403 13.8298 212.044 13.7422C211.684 13.5672 211.415 13.3921 211.145 13.1295C210.875 12.867 210.696 12.6044 210.516 12.2543C210.336 11.9917 210.246 11.6416 210.246 11.2039ZM210.696 11.2039C210.696 11.5541 210.785 11.8166 210.875 12.0792C210.965 12.3418 211.145 12.6044 211.415 12.867C211.594 13.1295 211.864 13.2171 212.224 13.3921C212.493 13.4797 212.853 13.5672 213.212 13.5672C213.572 13.5672 213.842 13.4797 214.201 13.3921C214.471 13.3046 214.741 13.1295 215.01 12.867C215.19 12.6044 215.37 12.4293 215.55 12.0792C215.64 11.8166 215.729 11.4665 215.729 11.2039C215.729 10.8538 215.64 10.5913 215.55 10.2411C215.46 9.97857 215.28 9.71599 215.01 9.4534C214.831 9.27835 214.561 9.1033 214.201 8.92824C213.932 8.84071 213.572 8.75319 213.212 8.75319C212.853 8.75319 212.583 8.84071 212.224 8.92824C211.954 9.01577 211.684 9.19082 211.415 9.4534C211.235 9.62846 211.055 9.89104 210.875 10.2411C210.785 10.5913 210.696 10.8538 210.696 11.2039ZM211.954 9.62846H213.123C213.302 9.62846 213.392 9.62846 213.572 9.71598C213.752 9.71598 213.842 9.80351 213.932 9.89104C214.022 9.97857 214.111 10.0661 214.201 10.1536C214.291 10.2411 214.291 10.4162 214.291 10.5913C214.291 10.8538 214.201 11.0289 214.111 11.1164C213.932 11.2915 213.752 11.379 213.572 11.379L214.471 12.7794H213.752L213.033 11.4665H212.583V12.7794H211.954V9.62846ZM213.033 11.0289C213.212 11.0289 213.392 11.0289 213.482 10.9414C213.662 10.8538 213.752 10.7663 213.752 10.5913C213.752 10.4162 213.662 10.3287 213.572 10.2411C213.392 10.1536 213.302 10.1536 213.123 10.1536H212.583V11.0289H213.033Z" fill="#20855B"/>
<path d="M38.1944 18.1177C38.1944 21.1812 35.6775 23.6319 32.5313 23.6319C29.3851 23.6319 26.8682 21.1812 26.8682 18.1177C26.8682 15.0543 29.3851 12.6035 32.5313 12.6035C35.6775 12.6035 38.1944 15.0543 38.1944 18.1177Z" fill="#20855B"/>
<path d="M12.127 18.1177C12.127 21.1812 9.61008 23.6319 6.4639 23.6319C3.31772 23.6319 0.800781 21.1812 0.800781 18.1177C0.800781 15.0543 3.31772 12.6035 6.4639 12.6035C9.61008 12.6035 12.127 15.0543 12.127 18.1177Z" fill="#20855B"/>
<path d="M17.2492 9.10217C17.2492 11.2028 15.5412 12.8658 13.3839 12.8658C11.2265 12.8658 9.51855 11.2028 9.51855 9.10217C9.51855 7.00152 11.2265 5.3385 13.3839 5.3385C15.5412 5.42603 17.2492 7.08904 17.2492 9.10217Z" fill="#20855B"/>
<path d="M29.7462 9.10217C29.7462 11.2028 28.0383 12.8658 25.8809 12.8658C23.7236 12.8658 22.0156 11.2028 22.0156 9.10217C22.0156 7.00152 23.7236 5.3385 25.8809 5.3385C28.0383 5.42603 29.7462 7.08904 29.7462 9.10217Z" fill="#20855B"/>
<path d="M17.2492 27.2213C17.2492 29.322 15.5412 30.985 13.3839 30.985C11.2265 30.985 9.51855 29.322 9.51855 27.2213C9.51855 25.1207 11.2265 23.4576 13.3839 23.4576C15.5412 23.4576 17.2492 25.1207 17.2492 27.2213Z" fill="#20855B"/>
<path d="M23.5461 18.1172C23.5461 20.2178 21.7483 21.9684 19.5909 21.9684C17.4336 21.9684 15.6357 20.2178 15.6357 18.1172C15.6357 16.0165 17.4336 14.266 19.5909 14.266C21.7483 14.266 23.5461 15.929 23.5461 18.1172Z" fill="#20855B"/>
<path d="M22.0132 2.2757C22.0132 3.50108 20.9345 4.55141 19.676 4.55141C18.4176 4.55141 17.3389 3.50108 17.3389 2.2757C17.3389 1.05033 18.4176 0 19.676 0C20.9345 0 22.0132 1.05033 22.0132 2.2757Z" fill="#20855B"/>
<path d="M22.0132 33.8723C22.0132 35.0976 20.9345 36.148 19.676 36.148C18.4176 36.148 17.3389 35.0976 17.3389 33.8723C17.3389 32.6469 18.4176 31.5966 19.676 31.5966C20.9345 31.5966 22.0132 32.6469 22.0132 33.8723Z" fill="#20855B"/>
<path d="M29.7462 27.2213C29.7462 29.322 28.0383 30.985 25.8809 30.985C23.7236 30.985 22.0156 29.322 22.0156 27.2213C22.0156 25.1207 23.7236 23.4576 25.8809 23.4576C28.0383 23.4576 29.7462 25.1207 29.7462 27.2213Z" fill="#20855B"/>
</g>
</svg>
